<?xml version="1.0" encoding="UTF-8"?>
<svg width="65px" height="41px" viewBox="0 0 65 41" version="1.1" xmlns="http://www.w3.org/2000/svg" xmlns:xlink="http://www.w3.org/1999/xlink">
    <title>cmu</title>
    <g id="Page-1" stroke="none" stroke-width="1" fill="none" fill-rule="evenodd">
        <g id="book2-home-copy" transform="translate(-681.000000, -997.000000)" fill="#95A5A6">
            <g id="Group-24" transform="translate(354.000000, 941.000000)">
                <g id="cmu" transform="translate(327.000000, 56.000000)">
                    <polyline id="Fill-1" points="50.6385373 10.6894768 50.6385373 4.3909274 47.6936382 4.3909274 47.6936382 4.83520487 48.5172347 4.83520487 48.5172347 10.6894768 47.4570349 10.6894768 47.4570349 11.1069367 51.6996402 11.1069367 51.6996402 10.6894768 50.6385373 10.6894768"></polyline>
                    <path d="M8.75793656,0.323598477 L8.3741334,0.323598477 C8.35968434,0.647196955 8.18719869,0.786648232 7.86119177,0.786648232 C7.20556567,0.786648232 6.2492185,0 5.12761021,0 C1.93256179,0 0.000903066255,3.11530578 0.000903066255,5.86142325 C0.000903066255,8.62273733 1.8386429,11.3527643 4.9244203,11.3527643 C6.79467052,11.3527643 7.496353,10.4731485 7.99394251,10.4731485 C8.32175556,10.4731485 8.382261,10.7592024 8.382261,11.1069367 L8.80489601,11.1069367 L8.80489601,7.32655558 L8.382261,7.32655558 L8.28924518,7.85128571 C8.07070314,9.10008978 7.08997319,10.9469253 5.08065076,10.9469253 C3.30341637,10.9469253 2.61798908,9.42547609 2.61798908,5.67638213 C2.61798908,1.74314097 3.55266266,0.419247751 5.12761021,0.419247751 C6.90303847,0.419247751 8.12579018,2.39123184 8.3741334,3.96363439 L8.75793656,3.96363439 L8.75793656,0.323598477" id="Fill-2"></path>
                    <path d="M17.0273143,9.79824008 C17.0273143,10.193352 16.764522,10.6501444 16.5911333,10.6501444 C16.3138919,10.6501444 16.2506773,10.3614087 16.2506773,9.88941976 L16.2506773,6.38972905 C16.2506773,4.65552726 14.6061936,4.22912817 13.0240216,4.22912817 C11.4870028,4.22912817 10.3635884,4.97465615 10.3635884,5.82656043 C10.3635884,6.35933582 10.671534,6.81612815 11.3641858,6.81612815 C11.9475666,6.81612815 12.3006655,6.43531889 12.3006655,5.90343741 C12.3006655,5.12930404 11.489712,5.11947094 11.489712,5.10159257 C11.489712,4.75654005 12.3927782,4.64480024 12.9165567,4.64480024 C14.0679662,4.64480024 14.2223905,5.06672975 14.2223905,5.97942048 L14.2223905,7.25682994 L12.716076,7.37840285 C11.3172263,7.48477914 9.79555969,7.85039179 9.79555969,9.43173352 C9.79555969,10.7565207 10.9948317,11.289296 12.1778485,11.289296 C12.7774845,11.289296 13.8385873,11.0613468 14.2368395,10.3301216 C14.5140809,10.9692732 15.0830126,11.289296 15.7756644,11.289296 C16.7735527,11.289296 17.419245,10.6957342 17.419245,9.79824008 L17.0273143,9.79824008 Z M14.2223905,9.29585791 C14.1916862,10.1021724 13.7311224,10.763672 13.0077664,10.763672 C11.9629187,10.763672 11.9168623,9.89031368 11.9168623,9.2225566 C11.9168623,8.41624216 12.0089751,7.88346677 13.0077664,7.77798439 L14.2223905,7.65551757 L14.2223905,9.29585791 L14.2223905,9.29585791 Z" id="Fill-3"></path>
                    <g id="Group-7" transform="translate(0.000000, 13.617954)">
                        <polyline id="Fill-4" points="52.2857302 23.2257891 52.2857302 16.9272397 49.1051308 16.9272397 49.1051308 17.3715172 50.1653306 17.3715172 50.1653306 23.2257891 49.1051308 23.2257891 49.1051308 23.642355 53.346833 23.642355 53.346833 23.2257891 52.2857302 23.2257891"></polyline>
                        <path d="M12.3846507,0.439807875 L12.3936813,0.0098331029 L8.88075357,0.0098331029 L6.33500979,7.2210732 L3.85609292,0 L0,0 L0,0.439807875 L1.04033233,0.439807875 L1.04033233,9.12869517 C1.04033233,9.78214955 0.877780402,10.2898952 0,10.2898952 L0,10.7109308 L2.657724,10.7109308 L2.657724,10.2898952 L2.61166762,10.2898952 C1.78174973,10.2898952 1.45845201,10.2246392 1.45845201,8.99192564 L1.45845201,0.364718726 L1.48915626,0.364718726 L5.16282979,10.7109308 L5.57824027,10.7109308 L9.15799492,0.547078089 L9.18960223,0.547078089 L9.18960223,10.2898952 L8.16462203,10.2898952 L8.16462203,10.7109308 L12.3846507,10.7109308 L12.3846507,10.2898952 L11.3786348,10.2898952 L11.3786348,0.439807875 L12.3846507,0.439807875" id="Fill-6"></path>
                    </g>
                    <path d="M14.8400878,20.6468343 L19.0835961,20.6468343 C19.067341,19.0038122 17.5303222,17.4215766 15.9165428,17.4519698 C14.1031857,17.4519698 12.5354627,19.0038122 12.5354627,21.0571429 C12.5354627,23.0353844 13.9957209,24.5112438 15.9635022,24.5112438 C17.8527168,24.5112438 18.7910027,23.3554072 19.1287495,21.8491546 L18.7106298,21.8491546 C18.372883,23.2642275 17.623338,24.0678602 16.423163,24.0678602 C14.9945121,24.0678602 14.8400878,22.9594014 14.8400878,21.9251377 L14.8400878,20.6468343 Z M14.8400878,20.2329501 L14.8400878,19.2112013 C14.8400878,18.1921343 15.2871056,17.8730054 15.8090779,17.8730054 C16.546883,17.8730054 16.7771649,18.3744936 16.7771649,19.2112013 L16.7771649,20.2329501 L14.8400878,20.2329501 L14.8400878,20.2329501 Z" id="Fill-8"></path>
                    <path d="M32.4977423,33.5773647 L36.7412507,33.5773647 C36.7249955,31.9343425 35.1879767,30.3521069 33.5741973,30.3825001 C31.7608403,30.3825001 30.1922142,31.9343425 30.1922142,33.9876732 C30.1922142,35.9659147 31.6533754,37.4408802 33.6202537,37.4408802 C35.5103714,37.4408802 36.4486572,36.2850436 36.786404,34.779685 L36.3673812,34.779685 C36.0296345,36.1947579 35.2800895,36.9974966 34.0808175,36.9974966 C32.6521667,36.9974966 32.4977423,35.8899317 32.4977423,34.855668 L32.4977423,33.5773647 Z M32.4977423,33.1634804 L32.4977423,32.1417316 C32.4977423,31.1226646 32.9438571,30.8035357 33.4658294,30.8035357 C34.2045376,30.8035357 34.4348195,31.305024 34.4348195,32.1417316 L34.4348195,33.1634804 L32.4977423,33.1634804 L32.4977423,33.1634804 Z" id="Fill-9"></path>
                    <polyline id="Fill-10" points="19.1097851 13.6420894 19.1097851 14.0282622 20.1699849 14.0282622 20.1699849 23.8980157 19.1097851 23.8980157 19.1097851 24.3288844 23.3514873 24.3288844 23.3514873 23.8980157 22.2903844 23.8980157 22.2903844 13.6420894 19.1097851 13.6420894"></polyline>
                    <polyline id="Fill-11" points="23.647693 13.6420894 23.647693 14.0282622 24.7087959 14.0282622 24.7087959 23.8980157 23.647693 23.8980157 23.647693 24.3288844 27.8902983 24.3288844 27.8902983 23.8980157 26.8291954 23.8980157 26.8291954 13.6420894 23.647693 13.6420894"></polyline>
                    <g id="Group-15" transform="translate(0.000000, 17.451970)">
                        <path d="M35.164497,3.52919002 C35.164497,1.44546613 33.5353655,0 31.5070787,0 C29.4769857,0 27.8487572,1.44546613 27.8487572,3.52919002 C27.8487572,5.61380784 29.4769857,7.05927396 31.5070787,7.05927396 C33.5353655,7.05927396 35.164497,5.61380784 35.164497,3.52919002 M32.7668561,5.03365477 C32.7668561,6.1742947 32.2900371,6.64717756 31.5070787,6.64717756 C30.7223141,6.64717756 30.2463982,6.1742947 30.2463982,5.03365477 L30.2463982,2.03902797 C30.2463982,0.898388038 30.7223141,0.427293017 31.5070787,0.427293017 C32.2900371,0.427293017 32.7668561,0.898388038 32.7668561,2.03902797 L32.7668561,5.03365477" id="Fill-12"></path>
                        <path d="M0,9.49341389 L1.07464885,9.49341389 L1.07464885,16.2523313 C1.07464885,18.6104881 2.7191325,20.0407576 5.2242383,20.0407576 C8.05264182,20.0407576 9.28171499,18.5648983 9.28171499,16.3283143 L9.28171499,10.5500255 C9.28171499,9.66862191 9.52825208,9.49341389 10.0818317,9.49341389 L10.3924865,9.49341389 L10.3924865,9.08578708 L7.68960918,9.08578708 L7.68960918,9.49341389 L7.88286536,9.49341389 C8.66762994,9.49341389 8.77599789,9.72851444 8.77599789,10.609918 L8.77599789,16.4802805 C8.77599789,18.5497017 7.47829168,19.4927856 6.16162107,19.4927856 C3.91840449,19.4927856 3.47228976,18.0017297 3.33863595,16.0538814 L3.33863595,9.49341389 L4.3464579,9.49341389 L4.3464579,9.08578708 L0,9.08578708 L0,9.49341389" id="Fill-14"></path>
                    </g>
                    <path d="M26.6296178,37.4310471 L27.0441252,37.4310471 L29.3198522,32.1068688 C29.7786098,31.1119376 30.02605,30.986789 30.3791489,30.9706985 L30.5182211,30.9706985 L30.5182211,30.5541325 L28.1205802,30.5541325 L28.1205802,30.9751681 L28.4122706,30.9751681 C28.8583853,30.9751681 29.0624783,30.9474566 29.0624783,31.3416746 C29.0624783,31.5866083 28.9848146,31.8261784 28.8005891,32.2659863 L27.7566445,34.7010201 L26.0841658,30.9751681 L26.9366603,30.9751681 L26.9366603,30.5541325 L23.0796643,30.5541325 L23.0796643,30.9751681 L23.8012143,30.9751681 L26.6296178,37.4310471" id="Fill-16"></path>
                    <path d="M43.7544632,37.4310471 L44.119302,37.4310471 C44.1960626,37.1879013 44.3540992,37.0672223 44.6611418,37.0672223 C45.060297,37.0672223 45.5380191,37.4310471 46.3986412,37.4310471 C47.8588994,37.4310471 48.8576907,36.1840308 48.8576907,34.9370146 C48.8576907,33.080346 47.5663059,32.9426826 45.9218222,32.7147334 C45.060297,32.5931604 44.5735443,32.4715875 44.5735443,31.8020426 C44.5735443,31.0860139 45.2047876,30.7874452 46.0338025,30.7874452 C47.1870181,30.7874452 47.6331328,31.5437002 48.017839,32.532374 L48.3808717,32.532374 L48.3808717,30.3717731 L48.0322881,30.3717731 C48.0322881,30.5541325 47.8742515,30.7060986 47.581658,30.7060986 C47.0894869,30.7060986 46.6903316,30.3717731 45.9832308,30.3717731 C44.446212,30.3717731 43.6930547,31.666167 43.6930547,32.6387503 C43.6930547,34.6017952 45.1993692,34.7689579 46.367937,34.9066214 C47.4741931,35.0433909 47.8742515,35.1131165 47.8742515,35.8130547 C47.8742515,36.6193691 47.1978549,36.9858757 46.367937,36.9858757 C45.1993692,36.9858757 44.3956403,35.9873688 44.119302,34.8753342 L43.7544632,34.8753342 L43.7544632,37.4310471" id="Fill-17"></path>
                    <polyline id="Fill-18" points="22.516151 36.8437427 22.516151 30.5451933 19.3355516 30.5451933 19.3355516 30.9894708 20.3957514 30.9894708 20.3957514 36.8437427 19.3355516 36.8437427 19.3355516 37.2603086 23.5772538 37.2603086 23.5772538 36.8437427 22.516151 36.8437427"></polyline>
                    <path d="M20.3984606,28.4453789 C20.3984606,29.0273198 20.8680551,29.4939452 21.4568543,29.4939452 C22.0456535,29.4939452 22.5152479,29.0273198 22.5152479,28.4453789 C22.5152479,27.8634379 22.0456535,27.3968125 21.4568543,27.3968125 C20.8680551,27.3968125 20.3984606,27.8634379 20.3984606,28.4453789" id="Fill-19"></path>
                    <path d="M50.1626214,28.4453789 C50.1626214,29.0273198 50.6322158,29.4939452 51.221015,29.4939452 C51.8098142,29.4939452 52.2794087,29.0273198 52.2794087,28.4453789 C52.2794087,27.8634379 51.8098142,27.3968125 51.221015,27.3968125 C50.6322158,27.3968125 50.1626214,27.8634379 50.1626214,28.4453789" id="Fill-20"></path>
                    <path d="M35.5221112,7.42309877 L39.7638134,7.42309877 C39.7484613,5.78007667 38.2114425,4.19784102 36.5976631,4.22823425 C34.7843061,4.22823425 33.2165831,5.78007667 33.2165831,7.83340734 C33.2165831,9.81164886 34.6759381,11.2875082 36.6437195,11.2875082 C38.5347403,11.2875082 39.472123,10.1316717 39.8098698,8.62541908 L39.3908471,8.62541908 C39.0540034,10.0395981 38.3035553,10.8441247 37.1051864,10.8441247 C35.6765356,10.8441247 35.5221112,9.73566579 35.5221112,8.70140215 L35.5221112,7.42309877 Z M35.5221112,7.01010845 L35.5221112,5.98746575 C35.5221112,4.96839872 35.9673229,4.64926984 36.4901983,4.64926984 C37.2280034,4.64926984 37.4582853,5.15075808 37.4582853,5.98746575 L37.4582853,7.01010845 L35.5221112,7.01010845 L35.5221112,7.01010845 Z" id="Fill-21"></path>
                    <path d="M54.0783167,7.42309877 L58.320922,7.42309877 C58.3046668,5.78007667 56.767648,4.19784102 55.1538686,4.22823425 C53.3405116,4.22823425 51.7727885,5.78007667 51.7727885,7.83340734 C51.7727885,9.81164886 53.2330467,11.2875082 55.200828,11.2875082 C57.0909457,11.2875082 58.0292316,10.1316717 58.3669783,8.62541908 L57.9479556,8.62541908 C57.6102088,10.0395981 56.8606638,10.8441247 55.6613918,10.8441247 C54.232741,10.8441247 54.0783167,9.73566579 54.0783167,8.70140215 L54.0783167,7.42309877 Z M54.0783167,7.01010845 L54.0783167,5.98746575 C54.0783167,4.96839872 54.5244314,4.64926984 55.0464037,4.64926984 C55.5972741,4.64926984 56.0144907,4.96392913 56.0144907,5.98746575 L56.0144907,7.01010845 L54.0783167,7.01010845 L54.0783167,7.01010845 Z" id="Fill-22"></path>
                    <path d="M17.9746308,36.8482122 L17.9746308,32.740657 C17.9746308,31.0976349 17.2675299,30.3297589 15.8081748,30.3297589 C14.7768732,30.3297589 13.7329286,30.9152755 13.3175181,31.797573 L13.3175181,30.5648595 L10.1351126,30.5648595 L10.1351126,30.9751681 L11.1953124,30.9751681 L11.1953124,36.8482122 L10.1351126,36.8482122 L10.1351126,37.2585208 L14.2241966,37.2585208 L14.2241966,36.8482122 L13.3175181,36.8482122 L13.3175181,32.8336245 C13.4493658,32.268668 14.1718188,30.965335 15.0125735,30.965335 C15.5706684,30.965335 15.8542312,31.1557396 15.8542312,32.1774884 L15.8542312,36.8482122 L14.9773539,36.8482122 L14.9773539,37.2585208 L19.0348306,37.2585208 L19.0348306,36.8482122 L17.9746308,36.8482122" id="Fill-23"></path>
                    <path d="M42.9976937,23.9185758 L42.9976937,19.8101267 C42.9976937,18.1671046 42.2914959,17.4001225 40.8321408,17.4001225 C39.8008392,17.4001225 38.7568946,17.9847452 38.3414841,18.8670427 L38.3414841,17.6343292 L35.1590786,17.6343292 L35.1590786,18.0446377 L36.2192784,18.0446377 L36.2192784,23.9185758 L35.1590786,23.9185758 L35.1590786,24.3288844 L39.2481626,24.3288844 L39.2481626,23.9185758 L38.3414841,23.9185758 L38.3414841,19.9030942 C38.4724287,19.3381377 39.1957848,18.0348046 40.0356364,18.0348046 C40.5946344,18.0348046 40.8772941,18.2252093 40.8772941,19.2469581 L40.8772941,23.9185758 L40.0013199,23.9185758 L40.0013199,24.3288844 L44.0587966,24.3288844 L44.0587966,23.9185758 L42.9976937,23.9185758" id="Fill-24"></path>
                    <path d="M32.139225,10.6939464 L32.139225,6.58639111 C32.139225,4.943369 31.4321242,4.17638698 29.971866,4.17638698 C28.9414674,4.17638698 27.8975228,4.76100964 27.4821123,5.64330715 L27.4821123,4.41059361 L24.3006099,4.41059361 L24.3006099,4.82090218 L25.3608097,4.82090218 L25.3608097,10.6939464 L24.3006099,10.6939464 L24.3006099,11.1051488 L28.3887909,11.1051488 L28.3887909,10.6939464 L27.4821123,10.6939464 L27.4821123,6.67935862 C27.61396,6.11529609 28.3373161,4.81196299 29.1762646,4.81196299 C29.7352627,4.81196299 30.0179224,5.0014737 30.0179224,6.02322249 L30.0179224,10.6939464 L29.1410451,10.6939464 L29.1410451,11.1051488 L33.1994248,11.1051488 L33.1994248,10.6939464 L32.139225,10.6939464" id="Fill-25"></path>
                    <g id="Group-29" transform="translate(48.524459, 1.262213)">
                        <path d="M0,1.04856634 C0,1.63050724 0.47049752,2.09713267 1.05839365,2.09713267 C1.64719285,2.09713267 2.11769037,1.63050724 2.11769037,1.04856634 C2.11769037,0.46573151 1.64719285,0 1.05839365,0 C0.47049752,0 0,0.46573151 0,1.04856634" id="Fill-26"></path>
                        <path d="M14.0778999,29.2856622 L14.0778999,29.7272579 C14.733526,29.7245761 15.019798,29.7862565 15.019798,30.0794618 C15.019798,30.3243954 14.9421343,30.5639656 14.7588118,31.0037734 L13.7148672,33.4388073 L12.0478069,29.7281518 L12.921072,29.7281518 L12.921072,29.2856622 L7.62368534,29.2856622 L7.62368534,26.021072 L7.34554094,26.021072 C7.34554094,27.6337009 6.24018784,29.2919196 4.68691388,29.2919196 L4.68691388,29.7281518 L5.50238271,29.7281518 L5.50238271,34.4346324 C5.50238271,35.8800986 6.76216013,36.1688342 7.19201967,36.1688342 C8.12940245,36.1688342 8.76064576,35.7898128 9.23656168,34.9978011 L8.90784556,34.8190174 C8.72271698,35.0925564 8.47708296,35.4572751 8.09237673,35.4572751 C7.7853342,35.4572751 7.62368534,35.2418408 7.62368534,34.7394586 L7.62368534,29.7281518 L9.76575851,29.7281518 L12.5742946,36.138441 L11.6025953,38.4054182 L11.5998861,38.4107817 C11.5998861,38.4107817 11.5998861,38.4116756 11.598983,38.4116756 L11.5998861,38.4107817 C11.5791156,38.4536898 11.5348653,38.484083 11.4824875,38.484083 C11.4264974,38.484083 11.381344,38.4483263 11.3623796,38.3982668 C11.3623796,38.396479 11.3614766,38.3937972 11.3614766,38.3920094 C11.2368534,37.9513076 10.8340859,37.6303909 10.3464301,37.6303909 C9.75853398,37.6303909 9.28893952,38.0961224 9.28893952,38.6780633 C9.28893952,39.0874779 9.52373675,39.4361061 9.86599886,39.6086324 C9.86599886,39.6086324 9.86328966,39.6086324 9.86148353,39.6086324 C9.87232032,39.6139959 9.88406019,39.6184655 9.89489698,39.623829 C9.9156675,39.6336621 9.93553496,39.6426013 9.95720855,39.6515405 C10.0764133,39.6998121 10.2046487,39.7293114 10.3428178,39.7319931 C11.2341442,39.8061884 11.6910958,39.1554158 12.0053628,38.4903404 C12.0767051,38.3392682 12.1417258,38.1890899 12.2013282,38.0442751 C12.3367881,37.7224645 12.5724884,37.1700229 12.8497298,36.5228259 L13.1170374,35.9042344 L13.1161343,35.9033404 L15.2771719,30.844656 C15.7377357,29.8497247 15.9156397,29.7227883 16.4746377,29.7227883 L16.4755408,29.7227883 L16.4755408,29.2856622 L14.0778999,29.2856622" id="Fill-28"></path>
                    </g>
                    <path d="M22.7518513,4.15761469 C21.7675091,4.15761469 21.0143518,4.82715961 20.7226614,5.58877812 L20.6919572,5.58877812 L20.6919572,4.43025982 L17.541159,4.43025982 L17.541159,4.85487108 L18.6013588,4.85487108 L18.6013588,10.709143 L17.541159,10.709143 L17.541159,11.125709 L22.1368632,11.125709 L22.1368632,10.709143 L20.7226614,10.709143 L20.7226614,7.43114404 C20.7226614,6.45230334 20.9818414,5.45111468 21.6320491,4.89867308 C21.6699779,4.87274945 21.7205496,4.86381026 21.7638968,4.88705214 C21.8153716,4.91118794 21.8388513,4.96303521 21.834336,5.0157764 L21.835239,5.01756423 C21.7927949,5.13645539 21.7593815,5.27858842 21.75306,5.45111468 C21.7313864,6.00355628 22.1982717,6.43978848 22.7979077,6.43978848 C23.5348097,6.43978848 23.9655723,5.90701309 23.9655723,5.32954177 C23.9655723,4.59831648 23.4743043,4.15761469 22.7518513,4.15761469" id="Fill-30"></path>
                    <path d="M44.1039499,6.45587901 C44.1039499,8.22494362 43.6894425,8.28304832 43.1358628,8.28304832 C42.5208747,8.28304832 42.197577,8.165945 42.197577,6.41118309 C42.197577,5.17846955 42.3366492,4.65373943 43.1358628,4.65373943 C43.8574128,4.65373943 44.0885977,4.7011171 44.1039499,6.45140942 L44.1039499,6.45587901 Z M43.8429637,11.6540148 C45.3799825,11.6540148 45.7881684,11.717483 45.7881684,12.6453703 C45.7881684,13.755617 44.4146047,14.775578 42.8622338,14.775578 C41.4787363,14.775578 40.8149826,13.9361886 40.7842783,13.2058572 C40.7842783,12.5363123 41.120219,12.0956105 41.5356294,11.6540148 L43.8429637,11.6540148 Z M45.8856996,4.65373943 C45.9164039,4.64569416 45.9543326,4.62781579 45.9778124,4.65284551 C46.000389,4.67519347 46.000389,4.70469278 45.9832308,4.73508601 L45.9823277,4.73776776 C45.8884088,4.89241565 45.8531892,5.08639595 45.9254345,5.29646679 C45.9976798,5.50117411 46.1764869,5.66297335 46.3896106,5.71035103 C46.8294038,5.80957598 47.2123039,5.48776534 47.2123039,5.07298718 C47.2123039,4.80391773 47.0434305,4.60010432 46.8492713,4.47942533 C46.655112,4.35874634 46.423024,4.30242948 46.1728747,4.30242948 C45.7637857,4.30242948 45.3447629,4.51965166 45.0440418,4.77888801 C45.0431388,4.77799409 45.0422357,4.77710017 45.0422357,4.77710017 C44.9736027,4.72793466 44.9004543,4.68055698 44.8236937,4.63586106 C44.4001556,4.39271524 43.8492852,4.22912817 43.1205107,4.22912817 C41.829126,4.22912817 40.4456285,5.06672975 40.4456285,6.45140942 C40.4456285,7.28722317 40.9079984,7.94246539 41.7216611,8.30718411 L41.7216611,8.33757734 C41.1220251,8.41356041 40.1846423,8.82386898 40.1846423,10.0869757 C40.1846423,10.8468064 40.5386443,11.4251717 41.1843367,11.6084249 L41.1843367,11.6379242 C40.5693485,11.8059809 39.8613446,12.4138455 39.8613446,13.1450707 C39.8613446,14.271408 41.1987857,15.137615 42.9055809,15.137615 C45.0422357,15.137615 46.4410853,13.7082394 46.4410853,11.8515708 C46.4410853,10.3757114 45.7023771,9.7070604 44.1960626,9.73655971 L41.6449005,9.73655971 C41.2601942,9.73655971 41.0046265,9.72225701 41.0046265,9.31105453 C41.0046265,8.93113919 41.5934257,8.5199367 42.1777095,8.5199367 C42.279756,8.5199367 42.4468233,8.59681369 42.4901705,8.61111639 C42.6752991,8.67100892 42.8748767,8.70229607 43.1205107,8.70229607 C44.4425997,8.70229607 45.8558984,7.95676808 45.8558984,6.51130196 C45.8558984,6.06434273 45.659933,5.45290252 45.2941912,5.0738811 C45.2734207,5.05063922 45.2743237,5.01488248 45.2987065,4.99611019 C45.4468094,4.87990079 45.618392,4.78067585 45.6987649,4.73687384 C45.7664949,4.70022319 45.8170666,4.67340563 45.8811843,4.65552726 L45.8856996,4.65373943 L45.8856996,4.65373943 Z" id="Fill-31"></path>
                    <path d="M42.1235256,30.2725482 C41.1400864,30.2725482 40.3869292,30.9420931 40.0943357,31.7037116 L40.0636314,31.7037116 L40.0636314,30.5451933 L36.9128333,30.5451933 L36.9128333,30.9706985 L37.9739361,30.9706985 L37.9739361,36.8240764 L36.9128333,36.8240764 L36.9128333,37.2406424 L41.5085374,37.2406424 L41.5085374,36.8240764 L40.0943357,36.8240764 L40.0943357,33.5469714 C40.0943357,32.5690246 40.3526126,31.567836 41.0019173,31.0153944 C41.0398461,30.9894708 41.0895147,30.9814255 41.133765,31.0028795 C41.1834336,31.0288032 41.2087195,31.0806504 41.202398,31.1333916 L41.2051072,31.1378612 C41.1635661,31.2558584 41.1310558,31.3962036 41.1247343,31.5660481 C41.1030607,32.1184897 41.569946,32.5556159 42.1695819,32.5556159 C42.9073871,32.5556159 43.3372466,32.0228405 43.3372466,31.4435813 C43.3372466,30.7141439 42.8459786,30.2725482 42.1235256,30.2725482" id="Fill-32"></path>
                </g>
            </g>
        </g>
    </g>
</svg>