<?xml version="1.0" encoding="UTF-8"?>
<svg width="93px" height="18px" viewBox="0 0 93 18" version="1.1" xmlns="http://www.w3.org/2000/svg" xmlns:xlink="http://www.w3.org/1999/xlink">
    <title>facebook</title>
    <g id="Page-1" stroke="none" stroke-width="1" fill="none" fill-rule="evenodd">
        <g id="book2-home-copy" transform="translate(-357.000000, -1009.000000)" fill="#95A5A6" fill-rule="nonzero">
            <g id="Group-24" transform="translate(354.000000, 941.000000)">
                <g id="facebook" transform="translate(3.000000, 68.000000)">
                    <path d="M7.28470919,2.83292978 C6.19418386,2.83292978 5.86702627,3.31234867 5.86702627,4.38014528 L5.86702627,6.14527845 L8.78963415,6.14527845 L8.50609756,9.02179177 L5.86702627,9.02179177 L5.86702627,17.716707 L2.35553471,17.716707 L2.35553471,9.02179177 L0,9.02179177 L0,6.16707022 L2.35553471,6.16707022 L2.35553471,4.44552058 C2.35553471,1.52542373 3.53330206,0 6.78306754,0 C7.45919325,0 8.15712946,0.0435835351 8.83325516,0.130750605 L8.83325516,2.83292978" id="_Path_"></path>
                    <path d="M9.02954972,11.5714286 C9.02954972,8.34624697 10.5562852,5.90556901 13.7842402,5.90556901 C15.5290807,5.90556901 16.5977955,6.79903148 17.1212477,7.93220339 L17.1212477,6.16707022 L20.4800657,6.16707022 L20.4800657,17.7384988 L17.0994371,17.7384988 L17.0994371,15.9951574 C16.619606,17.1065375 15.5072702,17.9782082 13.7624296,17.9782082 C10.5562852,17.9782082 9.00773921,15.559322 9.00773921,12.3123487 M12.5410413,12.3559322 C12.5410413,14.0774818 13.173546,15.2324455 14.809334,15.2324455 C16.2488274,15.2324455 16.9685741,14.1864407 16.9685741,12.5302663 L16.9685741,11.3535109 C16.9685741,9.69733656 16.2270169,8.65133172 14.809334,8.65133172 C13.173546,8.65133172 12.5410413,9.78450363 12.5410413,11.527845 L12.5410413,12.3559322 L12.5410413,12.3559322 Z" id="_Compound_Path_"></path>
                    <path d="M27.7647749,5.90556901 C29.1170263,5.90556901 30.4256567,6.18886199 31.1235929,6.69007264 L30.3384146,9.17433414 C29.6186679,8.82566586 28.8116792,8.65133172 28.0046904,8.65133172 C26.1071764,8.65133172 25.2783771,9.7409201 25.2783771,11.6150121 L25.2783771,12.2905569 C25.2783771,14.1646489 26.1071764,15.2542373 28.0046904,15.2542373 C28.8116792,15.2542373 29.6186679,15.0581114 30.3384146,14.7094431 L31.1235929,17.1937046 C30.4256567,17.6731235 29.1388368,17.9782082 27.7647749,17.9782082 C23.6425891,17.9782082 21.7886961,15.7772397 21.7886961,12.2251816 L21.7886961,11.6803874 C21.7886961,8.1283293 23.6425891,5.90556901 27.7647749,5.90556901" id="_Path_2"></path>
                    <path d="M31.5816135,12.377724 L31.5816135,11.3535109 C31.5816135,8.062954 33.4573171,5.90556901 37.2741557,5.90556901 C40.8728893,5.90556901 42.4650563,8.08474576 42.4650563,11.3099274 L42.4650563,13.1622276 L35.0931051,13.1622276 C35.1585366,14.7530266 35.8782833,15.4503632 37.8194184,15.4503632 C39.0844278,15.4503632 40.3494371,15.2106538 41.549015,14.7530266 L42.1815197,17.1501211 C41.2654784,17.62954 39.3679644,18 37.6885553,18 C33.239212,17.9782082 31.5816135,15.7772397 31.5816135,12.377724 M35.0931051,10.8523002 L39.3243433,10.8523002 L39.3243433,10.5690073 C39.3243433,9.30508475 38.8227017,8.30266344 37.2741557,8.30266344 C35.7037992,8.30266344 35.0931051,9.30508475 35.0931051,10.8523002" id="_Compound_Path_2"></path>
                    <path d="M55.4641182,12.3123487 C55.4641182,15.5375303 53.9155722,17.9782082 50.6876173,17.9782082 C48.9427767,17.9782082 47.7213884,17.1065375 47.2415572,15.9951574 L47.2415572,17.7384988 L43.9263602,17.7384988 L43.9263602,0.348668281 L47.4378518,0.0435835351 L47.4378518,7.77966102 C47.9394934,6.75544794 49.0736398,5.92736077 50.7094278,5.92736077 C53.9155722,5.92736077 55.4859287,8.34624697 55.4859287,11.5932203 M51.9526266,11.5060533 C51.9526266,9.8716707 51.320122,8.65133172 49.6407129,8.65133172 C48.2012195,8.65133172 47.4378518,9.67554479 47.4378518,11.3317191 L47.4378518,12.5520581 C47.4378518,14.2082324 48.22303,15.2324455 49.6407129,15.2324455 C51.320122,15.2324455 51.9526266,14.0121065 51.9526266,12.377724 L51.9526266,11.5060533 Z" id="_Compound_Path_3"></path>
                    <path d="M56.620075,12.2251816 L56.620075,11.6368039 C56.620075,8.30266344 58.5175891,5.90556901 62.3780488,5.90556901 C66.2385084,5.90556901 68.1360225,8.30266344 68.1360225,11.6368039 L68.1360225,12.2251816 C68.1360225,15.559322 66.2385084,17.9564165 62.3780488,17.9564165 C58.5175891,17.9564165 56.620075,15.5811138 56.620075,12.2251816 M64.6463415,11.3970944 C64.6463415,9.8716707 64.0138368,8.65133172 62.3780488,8.65133172 C60.7422608,8.65133172 60.1097561,9.8716707 60.1097561,11.3970944 L60.1097561,12.4866828 C60.1097561,14.0121065 60.7422608,15.2324455 62.3780488,15.2324455 C64.0138368,15.2324455 64.6463415,14.0121065 64.6463415,12.4866828 L64.6463415,11.3970944 L64.6463415,11.3970944 Z" id="_Compound_Path_4"></path>
                    <path d="M69.3356004,12.2251816 L69.3356004,11.6368039 C69.3356004,8.30266344 71.2331144,5.90556901 75.0935741,5.90556901 C78.9540338,5.90556901 80.8515478,8.30266344 80.8515478,11.6368039 L80.8515478,12.2251816 C80.8515478,15.559322 78.9540338,17.9564165 75.0935741,17.9564165 C71.2331144,17.9564165 69.3356004,15.5811138 69.3356004,12.2251816 M77.3618668,11.3970944 C77.3618668,9.8716707 76.7293621,8.65133172 75.0935741,8.65133172 C73.4577861,8.65133172 72.8252814,9.8716707 72.8252814,11.3970944 L72.8252814,12.4866828 C72.8252814,14.0121065 73.4577861,15.2324455 75.0935741,15.2324455 C76.7293621,15.2324455 77.3618668,14.0121065 77.3618668,12.4866828 L77.3618668,11.3970944 L77.3618668,11.3970944 Z" id="_Compound_Path_5"></path>
                    <polyline id="_Path_3" points="85.6716698 11.6803874 89.1395403 6.14527845 92.8473265 6.14527845 89.2267824 11.8765133 93 17.7384988 89.2704034 17.7384988 85.6716698 12.0726392 85.6716698 17.7384988 82.1819887 17.7384988 82.1819887 0.348668281 85.6716698 0.0217917676"></polyline>
                </g>
            </g>
        </g>
    </g>
</svg>