<?xml version="1.0" encoding="UTF-8"?>
<svg width="99px" height="21px" viewBox="0 0 99 21" version="1.1" xmlns="http://www.w3.org/2000/svg" xmlns:xlink="http://www.w3.org/1999/xlink">
    <title>godaddy</title>
    <g id="Page-1" stroke="none" stroke-width="1" fill="none" fill-rule="evenodd">
        <g id="book2-home-copy" transform="translate(-354.000000, -1066.000000)" fill="#95A5A6" fill-rule="nonzero">
            <g id="Group-24" transform="translate(354.000000, 941.000000)">
                <g id="godaddy" transform="translate(0.000000, 125.000000)">
                    <path d="M19.8705143,0.944255797 C17.4764938,-0.562401162 14.3248212,-0.203436952 11.5138967,1.57563414 C8.71175848,-0.203439027 5.55813498,-0.562401162 3.16704188,0.944255797 C-0.615353337,3.32520363 -1.07521681,9.45705739 2.14089389,14.6408569 C4.51148067,18.4625692 8.21870049,20.7019002 11.5187791,20.6605955 C14.8188557,20.7019002 18.5260755,18.4625692 20.8966623,14.6408569 C24.1088691,9.45705739 23.6529116,3.3252057 19.8705143,0.944255797 Z M3.87978154,13.54627 C3.2166299,12.4873457 2.7162852,11.3334876 2.395721,10.1238389 C2.11091464,9.07379931 2.00202162,7.98325568 2.0735263,6.89711821 C2.2170499,4.9813441 2.99129819,3.48944106 4.25274966,2.69579247 C5.51419906,1.90214181 7.18181109,1.85395192 8.95780129,2.56400951 C9.22434629,2.67120469 9.48796182,2.79512098 9.74962436,2.93181984 C8.76271232,3.83824581 7.904556,4.87737748 7.19938587,6.01987448 C5.24667756,9.16693648 4.65110036,12.6690262 5.33259848,15.4610584 C4.78919706,14.8705971 4.30273761,14.2294517 3.87978154,13.54627 L3.87978154,13.54627 Z M20.6428117,10.1228574 C20.321823,11.3323559 19.8215054,12.4861508 19.1587511,13.5452864 C18.7354366,14.2294407 18.2490115,14.8718591 17.7059362,15.4640092 C18.3151823,12.9611143 17.9012077,9.89469462 16.4073864,7.01906731 C16.3591388,6.92329079 16.2728717,6.85258249 16.1699649,6.8244663 C16.0670581,6.79635011 15.9571432,6.81345758 15.8674609,6.87154891 L11.2102512,9.8022492 C11.1244584,9.85616952 11.0634824,9.94224991 11.0407705,10.0415068 C11.0180587,10.1407636 11.0354765,10.2450439 11.0891828,10.3313503 L11.7726297,11.4318368 C11.8259756,11.5181876 11.9112616,11.5795879 12.0096427,11.6024706 C12.1080238,11.6253533 12.2114016,11.6078348 12.2969334,11.5537859 L15.3158217,9.65374721 C15.4134564,9.94878401 15.5110911,10.2438208 15.5843176,10.5388576 C15.8690743,11.5875701 15.9782954,12.6767582 15.9074909,13.761646 C15.7639673,15.6764365 14.989719,17.1683396 13.7282675,17.9629738 C13.0776198,18.3636777 12.3320894,18.5810498 11.5695484,18.592385 L11.4728902,18.592385 C10.7103136,18.5812904 9.96472132,18.3639004 9.31417111,17.9629738 C8.05174316,17.1683396 7.27749486,15.6764365 7.13396921,13.7616439 C7.06290345,12.6755139 7.17178989,11.5850432 7.45616596,10.5349232 C8.11050156,8.10541407 9.4631025,5.92489537 11.3440099,4.26735213 C12.1551297,3.5502058 13.0789934,2.97390894 14.0778019,2.56204024 C15.8489076,1.85198473 17.5194512,1.89918896 18.7818771,2.69382321 C20.0443029,3.48845539 20.8175768,4.97937691 20.9611004,6.89514895 C21.0335278,7.98138653 20.9259612,9.07219204 20.6428096,10.1228532 L20.6428117,10.1228574 Z M44.6826086,7.83435289 C42.2339107,7.83435289 40.2548392,9.75996087 40.2548392,12.2097499 C40.2548392,14.6428241 42.2339107,16.5369612 44.6826086,16.5369612 C47.1479047,16.5369612 49.1269741,14.6457728 49.1269741,12.209752 C49.1269741,9.76094446 47.1508321,7.83533649 44.6826086,7.83533649 L44.6826086,7.83435289 Z M44.6826086,14.2494424 C43.5539434,14.2494424 42.6947507,13.3299083 42.6947507,12.193033 C42.6947507,11.0561577 43.5539434,10.1228574 44.6826086,10.1228574 C45.827872,10.1228574 46.6870647,11.0591064 46.6870647,12.1959838 C46.6870647,13.332859 45.827872,14.2533747 44.6826086,14.2533747 L44.6826086,14.2494403 L44.6826086,14.2494424 Z M54.648257,4.47375131 L50.1423828,4.47375131 C50.044025,4.47198334 49.9491508,4.51057178 49.8796819,4.58073277 C49.8102108,4.65089429 49.7721517,4.74655976 49.7742971,4.84562883 L49.7742971,15.9104988 C49.7672061,16.0129134 49.8029321,16.1136524 49.8728383,16.1883621 C49.9427467,16.2630704 50.0404657,16.304958 50.1423828,16.3039228 L54.6482591,16.3039228 C58.2539362,16.3039228 60.7592602,13.8885131 60.7592602,10.3746223 C60.7592602,6.83909444 58.2539362,4.47375131 54.6482591,4.47375131 L54.648257,4.47375131 Z M54.7546822,13.9671902 L52.2893861,13.9671902 L52.2893861,6.80467279 L54.7546822,6.80467279 C56.7503499,6.80467279 58.1260323,8.30837897 58.1260323,10.3697043 C58.1260323,12.396608 56.7503499,13.9671902 54.7546822,13.9671902 L54.7546822,13.9671902 Z M69.7280533,8.07234953 L68.0340781,8.07234953 C67.8399273,8.08781312 67.6884599,8.24801242 67.6825907,8.44409631 L67.6825907,8.95057685 C67.2969303,8.30837897 66.4250452,7.83533649 65.3393415,7.83533649 C63.2265093,7.83533649 61.2474378,9.5072124 61.2474378,12.1772975 C61.2474378,14.8326288 63.2089345,16.534994 65.3227433,16.534994 C66.4123549,16.534994 67.3018127,16.0629351 67.6874732,15.4207373 L67.6874732,15.9439368 C67.6885341,16.1391865 67.845125,16.2973543 68.0389605,16.2989646 L69.7329358,16.2989646 C69.82706,16.3011384 69.91797,16.2644323 69.9845434,16.1973747 C70.0511168,16.130317 70.0875578,16.0387458 70.0853996,15.9439368 L70.0853996,8.44409631 C70.0882997,8.34668213 70.0519667,8.25222678 69.9846633,8.18221122 C69.91736,8.11219567 69.8248072,8.07257133 69.7280533,8.07234953 Z M65.7874871,14.2681265 C64.6656554,14.2681265 63.8230609,13.3997352 63.8230609,12.1950002 C63.8230609,10.9902652 64.6656554,10.1228574 65.7874871,10.1228574 C66.9093189,10.1228574 67.7519113,10.9892816 67.7519113,12.1940166 C67.7519113,13.3987516 66.9102954,14.2671429 65.7874871,14.2671429 L65.7874871,14.2681265 Z M79.2367698,4.47388205 L77.5427946,4.47388205 C77.447015,4.4709729 77.3540883,4.50693248 77.2848784,4.57368718 C77.2156684,4.64044187 77.1759746,4.73239805 77.1747089,4.82890981 L77.1747089,8.91713879 C76.784166,8.30837897 75.8995907,7.83533649 74.7933807,7.83533649 C72.6961703,7.83533649 70.7512718,9.5072124 70.7512718,12.1772975 C70.7512718,14.8326288 72.7127686,16.534994 74.8265773,16.534994 C75.916189,16.534994 76.7382792,16.0629351 77.1913072,15.4207373 L77.1913072,15.9439368 C77.1918408,16.1394065 77.3487386,16.2978855 77.5427946,16.2989646 L79.2367698,16.2989646 C79.3309761,16.3014232 79.4220519,16.2648087 79.4886882,16.1976877 C79.5553244,16.1305667 79.5916746,16.0388284 79.5892337,15.9439368 L79.5892337,4.83087699 C79.5922215,4.73564908 79.5561132,4.64339049 79.4894148,4.5758347 C79.4227165,4.50827891 79.3313251,4.47139872 79.2367698,4.47388205 Z M75.2962036,14.2887799 C74.1792543,14.2887799 73.3434933,13.4115341 73.3434933,12.1940145 C73.3434933,10.9764969 74.1821838,10.0992532 75.2962036,10.0992532 C76.4102235,10.0992532 77.2489119,10.9764969 77.2489119,12.1940166 C77.2489119,13.4115362 76.4141294,14.2887799 75.2962036,14.2887799 Z M88.7435333,4.47388205 L87.0524876,4.47388205 C86.9566156,4.47097367 86.8635883,4.50690305 86.794224,4.57362962 C86.7248597,4.64035618 86.6849497,4.7323089 86.6834254,4.82890981 L86.6834254,8.91713879 C86.297765,8.30837897 85.4083051,7.83533649 84.3020952,7.83533649 C82.2048868,7.83533649 80.2599883,9.5072124 80.2599883,12.1772975 C80.2599883,14.8326288 82.2224616,16.534994 84.3352938,16.534994 C85.4258799,16.534994 86.2469936,16.0629351 86.7000237,15.4207373 L86.7000237,15.9439368 C86.7010908,16.1395663 86.8582709,16.2978897 87.0524876,16.2989646 L88.7435333,16.2989646 C88.8376551,16.3014361 88.9286406,16.2647927 88.9951249,16.1976387 C89.0616092,16.1304846 89.0977355,16.038736 89.0950207,15.9439368 L89.0950207,4.83087699 C89.0982846,4.73574199 89.0624013,4.64347208 88.9958545,4.57588256 C88.9293077,4.50829305 88.8380051,4.47138409 88.7435333,4.47388205 L88.7435333,4.47388205 Z M84.8029672,14.2887799 C83.6850414,14.2887799 82.8502588,13.4115341 82.8502588,12.1940145 C82.8502588,10.9764969 83.6889494,10.0992532 84.8029692,10.0992532 C85.916989,10.0992532 86.7556775,10.9764969 86.7556775,12.1940166 C86.7556775,13.4115362 85.9228459,14.2887799 84.8058966,14.2887799 L84.8029692,14.2887799 L84.8029672,14.2887799 Z M98.0189014,8.64767129 L95.4911202,17.3797833 C95.0029426,18.9336445 93.9143074,19.8630104 92.2203321,19.8630104 C91.4499898,19.8630104 90.748966,19.7046745 90.1992798,19.3880007 C89.879036,19.2040956 89.6134675,19.0359238 89.6134675,18.7664563 C89.6134675,18.5992701 89.6671662,18.5127263 89.764803,18.3563555 L90.2666473,17.5990937 C90.408218,17.38765 90.5126902,17.3188108 90.6650001,17.3188108 C90.7856963,17.321798 90.9024461,17.362716 90.9989148,17.4358399 C91.3142761,17.641382 91.6071822,17.8184041 92.0533769,17.8184041 C92.574749,17.8184041 92.9731018,17.6502344 93.1878989,17.0247555 L93.4046511,16.2999461 L92.3814305,16.2999461 C92.1295329,16.2999461 91.9908897,16.1484954 91.9284025,15.9449183 L89.6661897,8.64767129 C89.5822239,8.36050117 89.6593564,8.07332593 90.0782113,8.07332593 L91.8600584,8.07332593 C92.077785,8.07332593 92.230095,8.14807384 92.3257788,8.46179894 L93.9963203,14.3379514 L95.5584898,8.46179894 C95.6082826,8.25920755 95.7430199,8.07332593 96.0115178,8.07332593 L97.7015871,8.07332593 C98.0345232,8.07234953 98.1350874,8.30837897 98.0189014,8.64767337 L98.0189014,8.64767129 Z M39.6163982,11.2449808 L39.6163982,15.9095152 C39.6179131,16.0122471 39.5780897,16.1112333 39.5059694,16.1838903 C39.4338445,16.2565411 39.3355641,16.2966414 39.2335757,16.2950323 L37.8354361,16.2950323 C37.7333663,16.2969195 37.6349245,16.2569089 37.5627383,16.1841972 C37.4905521,16.1114855 37.450831,16.0123274 37.4527051,15.9095152 L37.4527051,14.6851124 C36.5652004,15.814121 35.0215821,16.5251602 33.2758611,16.5251602 C29.9972632,16.5251602 27.4353109,14.0409474 27.4353109,10.504438 C27.4353109,6.82926058 30.201321,4.29587637 33.6956946,4.29587637 C36.2752216,4.29587637 38.3372825,5.41308185 39.2531035,7.6602816 C39.278757,7.71965979 39.2930035,7.7833981 39.2950885,7.84812114 C39.2950885,7.9543348 39.2257659,8.03497709 39.0021803,8.11267067 L37.3697158,8.7460162 C37.2712416,8.78714307 37.1609046,8.78890185 37.0611878,8.75093417 C36.9737709,8.69894071 36.9053009,8.61997304 36.8659164,8.52572427 C36.2801041,7.40359875 35.2373578,6.64141896 33.6322309,6.64141896 C31.5506422,6.64141896 30.0597504,8.27887529 30.0597504,10.4021588 C30.0597504,12.4605333 31.3290117,14.1530626 33.6917886,14.1530626 C34.9346867,14.1530626 35.9256872,13.562989 36.3875016,12.9148895 L34.913206,12.9148895 C34.8112182,12.9164989 34.7129383,12.8763991 34.6408134,12.8037492 C34.5686885,12.7310992 34.5288789,12.6321042 34.5304771,12.5293745 L34.5304771,11.2616999 C34.5288788,11.1589698 34.5686887,11.0599744 34.6408141,10.9873244 C34.7129394,10.9146744 34.8112199,10.8745749 34.9132081,10.8761848 L39.2335757,10.8761848 C39.333675,10.8710396 39.4314545,10.9076768 39.5038804,10.977466 C39.5763009,11.0472623 39.616983,11.1440233 39.6163982,11.2449808 L39.6163982,11.2449808 Z" id="Shape"></path>
                </g>
            </g>
        </g>
    </g>
</svg>