<?xml version="1.0" encoding="UTF-8"?>
<svg width="99px" height="26px" viewBox="0 0 99 26" version="1.1" xmlns="http://www.w3.org/2000/svg" xmlns:xlink="http://www.w3.org/1999/xlink">
    <title>mailchimp</title>
    <g id="Page-1" stroke="none" stroke-width="1" fill="none" fill-rule="evenodd">
        <g id="book2-home-copy" transform="translate(-510.000000, -1064.000000)" fill="#95A5A6" fill-rule="nonzero">
            <g id="Group-24" transform="translate(354.000000, 941.000000)">
                <g id="mailchimp" transform="translate(156.000000, 123.000000)">
                    <path d="M38.3910329,9.93805714 C37.1200212,9.93805714 36.4912538,10.9149557 36.2027318,11.5451007 C36.0415731,11.896951 35.9964757,12.1751403 35.8657454,12.1751403 C35.6815482,12.1751403 35.8134737,11.9333587 35.6627484,11.397144 C35.4644244,10.6916412 34.8666276,9.93805714 33.5964845,9.93805714 C32.2611411,9.93805714 31.6894232,11.0399864 31.4182902,11.6455086 C31.2328978,12.0594515 31.2326822,12.1751403 31.0901047,12.1751403 C30.883522,12.1751403 31.0546797,11.8463243 31.1475916,11.4597662 C31.3307014,10.6986454 31.1914969,10.117006 31.1914969,10.117006 L29.0747017,10.117006 L29.0747017,17.8912409 L31.964034,17.8912409 C31.964034,17.8912409 31.964034,14.6422293 31.964034,14.0232284 C31.964034,13.2603024 32.2908087,12.2922132 32.850895,12.2922132 C33.498031,12.2922132 33.627566,12.7775846 33.627566,13.6764748 C33.627566,14.4914054 33.627566,17.8929407 33.627566,17.8929407 L36.5285269,17.8929407 C36.5285269,17.8929407 36.5285269,14.6241864 36.5285269,14.0232284 C36.5285269,13.3441537 36.812265,12.2922132 37.4196266,12.2922132 C38.075779,12.2922132 38.191948,12.9741521 38.191948,13.6764748 C38.191948,14.3787944 38.191948,17.8912409 38.191948,17.8912409 L41.0407481,17.8912409 C41.0407481,17.8912409 41.0407481,14.8108825 41.0407481,13.3195278 C41.0407481,11.2906887 40.3085246,9.93805714 38.3910329,9.93805714" id="path9250"></path>
                    <path d="M87.4333186,9.93805714 C86.1623068,9.93805714 85.5334316,10.9149557 85.2449096,11.5451007 C85.0837509,11.896951 85.0387613,12.1751403 84.9079232,12.1751403 C84.723726,12.1751403 84.8470663,11.8679746 84.705034,11.397144 C84.493344,10.6953569 83.9666188,9.93805714 82.6387701,9.93805714 C81.3034268,9.93805714 80.731601,11.0399864 80.4605789,11.6455086 C80.2751865,12.0594515 80.2749678,12.1751403 80.1323934,12.1751403 C79.9258107,12.1751403 80.0968576,11.8463243 80.1898803,11.4597662 C80.3729901,10.6986454 80.2337825,10.117006 80.2337825,10.117006 L78.1168795,10.117006 L78.1168795,17.8912409 L81.0063227,17.8912409 C81.0063227,17.8912409 81.0063227,14.6422293 81.0063227,14.0232284 C81.0063227,13.2603024 81.3330944,12.2922132 81.8931837,12.2922132 C82.5402057,12.2922132 82.6697438,12.7775846 82.6697438,13.6764748 C82.6697438,14.4914054 82.6697438,17.8929407 82.6697438,17.8929407 L85.5707047,17.8929407 C85.5707047,17.8929407 85.5707047,14.6241864 85.5707047,14.0232284 C85.5707047,13.3441537 85.8545506,12.2922132 86.4619122,12.2922132 C87.1180646,12.2922132 87.2342337,12.9741521 87.2342337,13.6764748 C87.2342337,14.3787944 87.2342337,17.8912409 87.2342337,17.8912409 L90.0830337,17.8912409 C90.0830337,17.8912409 90.0830337,14.8108825 90.0830337,13.3195278 C90.0830337,11.2906887 89.3508102,9.93805714 87.4333186,9.93805714" id="path9252"></path>
                    <path d="M45.2708607,16.0742322 C44.5799334,16.2300866 44.2217537,16.0222457 44.2217537,15.5749668 C44.2217537,14.962239 44.8706271,14.716844 45.7968251,14.716844 C46.2051018,14.716844 46.5890338,14.7513412 46.5890338,14.7513412 C46.5890338,15.0136088 46.0061247,15.9085606 45.2708607,16.0742322 Z M45.9742854,9.93975402 C43.7609897,9.93975402 42.1728788,10.7345206 42.1728788,10.7345206 L42.1728788,13.0706337 C42.1728788,13.0706337 43.9267135,12.0857712 45.3494301,12.0857712 C46.4850355,12.0857712 46.6245696,12.6839703 46.5728431,13.1804858 C46.5728431,13.1804858 46.2454184,13.0957891 45.2458662,13.0957891 C42.8909724,13.0957891 41.7021188,14.1411497 41.7021188,15.8173863 C41.7021188,17.4073557 43.038223,18.0720069 44.1638324,18.0720069 C45.8063898,18.0720069 46.5283956,16.9939453 46.7503034,16.4824527 C46.9042877,16.1276299 46.9323258,15.8884898 47.0706616,15.8884898 C47.2282346,15.8884898 47.1752051,16.0600103 47.1675964,16.4131754 C47.1542274,17.0316347 47.1840151,17.4991438 47.2844185,17.8929407 L49.4621785,17.8929407 L49.4621785,14.0669562 C49.4621785,11.6782006 48.5968343,9.93975402 45.9742854,9.93975402" id="path9254"></path>
                    <polygon id="path9256" points="54.2215146 17.8929407 57.1109701 17.8929407 57.1109701 7.76353894 54.2215146 7.76353894"></polygon>
                    <path d="M60.2913134,14.0058203 C60.2913134,13.3067922 60.9561588,12.6708104 62.1768548,12.6708104 C63.5068752,12.6708104 64.5766303,13.2962859 64.816574,13.4382975 L64.816574,10.7345206 C64.816574,10.7345206 63.9714436,9.93975402 61.8942041,9.93975402 C59.7044921,9.93975402 57.8809966,11.1912346 57.8809966,13.8848242 C57.8809966,16.5783897 59.5358326,18.0720069 61.8883359,18.0720069 C63.7258473,18.0720069 64.821247,17.0858718 64.821247,17.0858718 L64.821247,14.5177281 C64.4746959,14.7071862 63.50905,15.3616381 62.190113,15.3616381 C60.7934784,15.3616381 60.2913134,14.7341467 60.2913134,14.0058203" id="path9258"></path>
                    <path d="M70.6695724,9.93975402 C68.9969162,9.93975402 68.3607557,11.4878941 68.2323081,11.7567416 C68.1037496,12.0254868 68.0402866,12.1801287 67.9350931,12.1768402 C67.7525286,12.1710034 67.879781,11.8468538 67.9509573,11.6369128 C68.0854919,11.240378 68.370533,10.1999005 68.370533,8.92114042 C68.370533,8.05377496 68.2504518,7.76348478 68.2504518,7.76348478 L65.756138,7.76348478 L65.756138,17.8929407 L68.6455781,17.8929407 C68.6455781,17.8929407 68.6455781,14.6549649 68.6455781,14.0250336 C68.6455781,13.3948886 68.9030217,12.29391 69.6308957,12.29391 C70.2337999,12.29391 70.4225622,12.7302464 70.4225622,13.6088642 C70.4225622,14.4873738 70.4225622,17.8929407 70.4225622,17.8929407 L73.3120055,17.8929407 C73.3120055,17.8929407 73.3120055,15.523594 73.3120055,13.7779417 C73.3120055,11.7823212 72.9732787,9.93975402 70.6695693,9.93975402" id="path9260"></path>
                    <path d="M74.2510304,10.1276205 L74.2510304,17.8929407 L77.1404736,17.8929407 L77.1404736,10.1276205 C77.1404736,10.1276205 76.6548228,10.4050667 75.6987385,10.4050667 C74.742765,10.4050667 74.2510304,10.1276205 74.2510304,10.1276205" id="path9262"></path>
                    <path d="M75.6872207,7.68483851 C74.7103805,7.68483851 73.9184983,8.18963384 73.9184983,8.81234741 C73.9184983,9.4349587 74.7103805,9.93975402 75.6872207,9.93975402 C76.6639532,9.93975402 77.4559432,9.4349587 77.4559432,8.81234741 C77.4559432,8.18963384 76.6639532,7.68483851 75.6872207,7.68483851" id="path9264"></path>
                    <path d="M50.3971804,10.1276205 L50.3971804,17.8929407 L53.2865127,17.8929407 L53.2865127,10.1276205 C53.2865127,10.1276205 52.8008649,10.4050667 51.8447806,10.4050667 C50.8888041,10.4050667 50.3971804,10.1276205 50.3971804,10.1276205" id="path9266"></path>
                    <path d="M51.8332598,7.68483851 C50.8565305,7.68483851 50.0646483,8.18963384 50.0646483,8.81234741 C50.0646483,9.4349587 50.8565305,9.93975402 51.8332598,9.93975402 C52.8101001,9.93975402 53.6019853,9.4349587 53.6019853,8.81234741 C53.6019853,8.18963384 52.8101001,7.68483851 51.8332598,7.68483851" id="path9268"></path>
                    <path d="M95.03059,16.2223273 C94.3678085,16.2223273 93.8803125,15.4015358 93.8803125,14.2579005 C93.8803125,13.1472672 94.3810667,12.29391 95.0076593,12.29391 C95.8118232,12.29391 96.1544621,13.014062 96.1544621,14.2579005 C96.1544621,15.5518272 95.8385551,16.2223273 95.03059,16.2223273 Z M95.8236674,9.93805714 C94.3383566,9.93805714 93.6576439,11.0258728 93.361735,11.6455086 C93.166128,12.0549927 93.176127,12.1751403 93.0334417,12.1751403 C92.826859,12.1751403 92.9981246,11.8463243 93.0911442,11.4597662 C93.2741462,10.6986454 93.1349386,10.117006 93.1349386,10.117006 L91.0180356,10.117006 L91.0180356,20.0383111 L93.9074788,20.0383111 C93.9074788,20.0383111 93.9074788,18.4148463 93.9074788,16.8927852 C94.2493569,17.459258 94.8826895,18.0645876 95.8590954,18.0645876 C97.9483947,18.0645876 99,16.3380071 99,14.0051855 C99,11.3611635 97.7411621,9.93805714 95.8236674,9.93805714" id="path9270"></path>
                    <path d="M18.8670521,12.2862681 C19.0613561,12.2636731 19.2475094,12.2625899 19.4185562,12.2862681 C19.517555,12.0645452 19.5346175,11.6822322 19.44551,11.2659576 C19.3131502,10.6471673 19.1340604,10.27271 18.7638177,10.3309816 C18.393686,10.3892502 18.3799935,10.8375821 18.5123564,11.4563694 C18.5867949,11.8043987 18.7193733,12.1019066 18.8670552,12.2862681" id="path9272"></path>
                    <path d="M15.6889821,12.7758877 C15.9538126,12.8894555 16.1166008,12.964708 16.1802794,12.8989026 C16.221249,12.8579308 16.2090814,12.7797087 16.145831,12.6787683 C16.0151007,12.4703136 15.7461425,12.2589916 15.4608827,12.1402219 C14.8774283,11.8949352 14.1816124,11.976557 13.6447772,12.3532407 C13.4676465,12.4800767 13.29964,12.655737 13.323655,12.7624059 C13.3314793,12.7969032 13.3579956,12.822907 13.4201555,12.8313974 C13.5663187,12.8477344 14.0768532,12.5955579 14.6649775,12.5604258 C15.0800989,12.5356044 15.4240408,12.6624253 15.6889821,12.7758877" id="path9274"></path>
                    <path d="M15.15617,13.0728631 C14.8111406,13.1260381 14.6208565,13.2371658 14.4987115,13.340438 C14.3944976,13.4293829 14.330055,13.5277719 14.3305938,13.596974 C14.3308159,13.6298797 14.3454756,13.6488764 14.3569964,13.6584288 C14.3727682,13.6719076 14.391337,13.6794293 14.4137225,13.6794293 C14.4916388,13.6794293 14.6661635,13.6109703 14.6661635,13.6109703 C15.1462695,13.4431655 15.4629374,13.4635431 15.7767774,13.4984646 C15.9502146,13.5174492 16.032154,13.5279795 16.070188,13.4699125 C16.0814932,13.4532445 16.0950778,13.4171617 16.0603922,13.3621815 C15.9795403,13.2341782 15.6312519,13.0177626 15.1561453,13.0728481" id="path9276"></path>
                    <path d="M17.79393,14.1629083 C18.0281164,14.2753086 18.2859912,14.2311536 18.3699944,14.0643056 C18.4538868,13.8975598 18.3320682,13.6711675 18.0977741,13.5586588 C17.8635877,13.4463637 17.6057129,13.4904134 17.5217097,13.6572615 C17.4378173,13.8241125 17.5596359,14.0503996 17.79393,14.1629083" id="path9278"></path>
                    <path d="M19.2997781,12.8776736 C19.109497,12.8744844 18.9517084,13.0785946 18.947251,13.3334338 C18.9427844,13.5883783 19.093522,13.7974709 19.2838061,13.800657 C19.4740871,13.8038462 19.6319867,13.599736 19.6363332,13.3448968 C19.6407998,13.0899523 19.4900622,12.8807514 19.2997781,12.8776736" id="path9280"></path>
                    <path d="M6.51819179,17.4733506 C6.47085488,17.4154309 6.39308951,17.4330616 6.31778232,17.450214 C6.26518404,17.4622486 6.2055901,17.4756973 6.14025734,17.4746443 C6.00030124,17.4719365 5.8817849,17.4136137 5.81522305,17.3137263 C5.72853676,17.1837072 5.73354554,16.9898024 5.82926979,16.7679832 C5.84214597,16.7379267 5.85736328,16.7047142 5.87392057,16.66852 C6.02648486,16.3340658 6.28194772,15.7743023 5.99516616,15.2409548 C5.77930219,14.8395369 5.42727412,14.5894755 5.00401427,14.5370437 C4.59768136,14.4867329 4.17934403,14.6338411 3.91250516,14.9213724 C3.49153406,15.3750085 3.42573615,15.9923005 3.50715182,16.2104251 C3.53700116,16.2902417 3.58364497,16.3123403 3.61757279,16.3168924 C3.68917423,16.3262192 3.79508546,16.275394 3.86144092,16.1010183 C3.86618478,16.0885023 3.87249966,16.0690483 3.88041635,16.0443412 C3.91001925,15.9522102 3.96506031,15.7805633 4.0552244,15.6429985 C4.16393881,15.4771133 4.33326986,15.3629077 4.53201591,15.321301 C4.73450159,15.2789512 4.94144464,15.3167278 5.11467551,15.4275246 C5.40961712,15.6159206 5.5231678,15.968833 5.39726153,16.3056219 C5.3321906,16.4797961 5.22644263,16.812764 5.24979534,17.0864855 C5.29691663,17.6402317 5.64567329,17.8627068 5.95903584,17.8863458 C6.26370543,17.8974778 6.47662144,17.7305335 6.53049194,17.6083881 C6.5622881,17.5362044 6.53545142,17.492263 6.51820103,17.4733476" id="path9282"></path>
                    <path d="M9.4145136,7.30156883 C10.4081668,6.18010732 11.6314381,5.20511923 12.7271643,4.65765515 C12.7650905,4.63864045 12.8052962,4.67889626 12.784759,4.71518366 C12.6977123,4.86908244 12.5302511,5.19864461 12.4771138,5.44860074 C12.4688582,5.48755381 12.5122121,5.5168491 12.5458997,5.49445266 C13.2275919,5.04060291 14.413513,4.55427472 15.4537084,4.49176087 C15.4983715,4.48905308 15.5199992,4.54504116 15.484451,4.57168281 C15.3262249,4.6902389 15.153222,4.85422269 15.0268383,5.02011998 C15.0053061,5.04834118 15.0256061,5.08900316 15.0616132,5.08921377 C15.7919885,5.0942984 16.8216427,5.34394765 17.4927937,5.71161144 C17.5382177,5.73643285 17.5058239,5.82231494 17.4550831,5.81095726 C16.4396667,5.58371648 14.7775486,5.41123925 13.0509911,5.82254059 C11.5096072,6.18978015 10.3331492,6.75666511 9.47491152,7.36632714 C9.43152063,7.397214 9.3794337,7.34126504 9.41450128,7.30158086 L9.4145136,7.30156883 Z M18.4611689,18.6398486 C18.4906178,18.6277538 18.5109394,18.5949414 18.5074616,18.5623577 C18.5033338,18.5222252 18.4667106,18.4930383 18.4256331,18.4971752 C18.4256331,18.4971752 16.3050336,18.803694 14.3018014,18.0875135 C14.5200126,17.3948307 15.1002048,17.6448831 15.9771745,17.7140731 C17.5578985,17.8061169 18.9745282,17.580573 20.0215682,17.2869944 C20.9288617,17.0328021 22.1204354,16.5313704 23.0459803,15.8178436 C23.3581908,16.4876727 23.4683838,17.2246791 23.4683838,17.2246791 C23.4683838,17.2246791 23.7100679,17.1825519 23.9119776,17.30387 C24.1028038,17.418584 24.2427723,17.6569839 24.1471404,18.2734575 C23.9525129,19.425147 23.4513213,20.3598371 22.6090157,21.2197622 C22.0962017,21.7588291 21.4737337,22.2275386 20.7615083,22.5683501 C20.3832257,22.7623814 19.9804907,22.9302945 19.5550469,23.0659187 C16.3794752,24.0789151 13.1290275,22.9652881 12.0812266,20.5738128 C11.9976577,20.3939914 11.9269126,20.205809 11.8711661,20.0089105 C11.4246367,18.4329614 11.8036801,16.5422407 12.9886247,15.3520856 C12.9887326,15.3519803 12.9885169,15.3514838 12.9886247,15.3514838 C13.0616524,15.2757018 13.1361987,15.186438 13.1361987,15.0741429 C13.1361987,14.9802097 13.0751262,14.8810775 13.0220967,14.8108133 C12.6075174,14.2235477 11.1715427,13.2227664 11.4597382,11.2860524 C11.6667552,9.89468134 12.9125567,8.9148072 14.0741363,8.97286523 C14.1722663,8.9778596 14.270612,8.98369639 14.3685234,8.98932258 C14.8718867,9.01850654 15.3110261,9.08155895 15.7253866,9.0984345 C16.4189231,9.12773881 17.0425832,9.0292324 17.7812171,8.42816911 C18.030399,8.22533756 18.2301338,8.04957187 18.5682076,7.99363795 C18.6037434,7.98768081 18.6920931,7.95670067 18.8687925,7.96487519 C19.0490776,7.97420203 19.2207775,8.02261431 19.3749805,8.12291689 C19.9672357,8.50777514 20.051128,9.43988688 20.081883,10.1218259 C20.0993798,10.5110376 20.1476285,11.4528072 20.164038,11.7231409 C20.2017455,12.3412934 20.3681193,12.4284331 20.7046744,12.5366935 C20.8939758,12.5976188 21.0696988,12.6429382 21.328661,12.7139455 C22.1125002,12.9288779 22.5772842,13.1469934 22.8701527,13.4270933 C23.044896,13.6021158 23.1261792,13.7881771 23.1512847,13.9655344 C23.2436544,14.6241262 22.6277077,15.4376999 20.9972133,16.1769327 C19.2147984,16.9848712 17.0524714,17.1894748 15.5584675,17.0269984 C15.443928,17.0146027 15.0364153,16.9694939 15.0350014,16.9692382 C13.8399499,16.812069 13.1582608,18.3205219 13.8754857,19.3539622 C14.3377715,20.0199824 15.5968281,20.4534966 16.8565377,20.4536982 C19.7448936,20.453999 21.9649262,19.2493211 22.7907146,18.2089489 C22.8154813,18.1778605 22.817884,18.1744547 22.8567867,18.1169472 C22.8974298,18.0571592 22.8639641,18.0241603 22.8133188,18.0580317 C22.1385822,18.5089179 19.1417738,20.2990533 15.9362079,19.7604858 C15.9362079,19.7604858 15.5467311,19.6979569 15.1911606,19.5628863 C14.9086177,19.4555374 14.3172312,19.1897768 14.2454018,18.597225 C16.832304,19.378588 18.4611689,18.6398938 18.4611689,18.6398938 L18.4611689,18.6398486 Z M4.25223616,12.6352511 C3.35256369,12.8061368 2.55960336,13.3041385 2.0747473,13.9920226 C1.7849038,13.7559725 1.24498203,13.2989366 1.14964591,13.1208362 C0.375494667,11.6852048 1.99447447,8.89386394 3.12545308,7.31749063 C5.92050279,3.42177747 10.298137,0.473030373 12.324648,1.00807563 C12.6541366,1.09914283 13.7451898,2.3347034 13.7451898,2.3347034 C13.7451898,2.3347034 11.7195691,3.43249731 9.84095861,4.96269677 C7.30973821,6.86629452 5.39768971,9.63301251 4.25223616,12.6352511 Z M5.76402944,19.2232812 C5.62785302,19.2459966 5.48896275,19.2550376 5.34887419,19.251713 C3.99520845,19.216262 2.53299156,18.0259384 2.38768784,16.6143793 C2.22709288,15.0541504 3.04331967,13.8534048 4.48850796,13.5686325 C4.66128293,13.5346678 4.87008348,13.5150333 5.09523802,13.5264963 C5.90496511,13.5697998 7.09822072,14.1770219 7.37082307,15.8999709 C7.61227614,17.4258409 7.22879076,18.9792762 5.76402944,19.2232782 L5.76402944,19.2232812 Z M24.1013899,16.4604805 C24.0897767,16.4204654 24.0142354,16.1507694 23.9104559,15.8258045 C23.8066763,15.5006681 23.6992002,15.27195 23.6992002,15.27195 C24.1155168,14.6631394 24.1229067,14.1187532 24.0675946,13.8103148 C24.0084781,13.4281102 23.845579,13.102369 23.5171778,12.7656974 C23.1887735,12.4290258 22.5171912,12.0841796 21.5732777,11.8253089 C21.4653673,11.7957037 21.1093624,11.7002781 21.0780652,11.6910416 C21.0756009,11.6710942 21.051974,10.5506887 21.0305774,10.0697731 C21.0149288,9.72206271 20.9843925,9.17927107 20.8119318,8.64465094 C20.6064334,7.92099695 20.2483646,7.28777113 19.8015118,6.88264055 C21.0348129,5.63402422 21.8047471,4.25846667 21.8028988,3.07841761 C21.7993255,0.809065664 18.9458401,0.122454248 15.4293669,1.54460685 C15.4256703,1.54608109 14.6896455,1.85092324 14.6843226,1.85347037 C14.6809649,1.85039251 13.3373475,0.562717808 13.3171368,0.545523339 C9.30787539,-2.87002035 -3.22744311,10.7386605 0.78033665,14.0438196 L1.65619434,14.7685357 C1.42900672,15.3433815 1.33973288,16.0019733 1.41266198,16.710235 C1.50626074,17.619833 1.98665942,18.4917957 2.76531733,19.1654368 C3.50448417,19.8051342 4.47632487,20.2099489 5.41942212,20.2092058 C6.97902053,23.7195402 10.5425258,25.8729918 14.720727,25.9941804 C19.2026276,26.1241995 22.9649128,24.0701268 24.5413981,20.3803953 C24.6445277,20.1214372 25.0821423,18.9546564 25.0821423,17.9246971 C25.0821423,16.8895148 24.4829316,16.4604805 24.1013899,16.4604805" id="path9284"></path>
                </g>
            </g>
        </g>
    </g>
</svg>