<?xml version="1.0" encoding="UTF-8"?>
<svg width="107px" height="26px" viewBox="0 0 107 26" version="1.1" xmlns="http://www.w3.org/2000/svg" xmlns:xlink="http://www.w3.org/1999/xlink">
    <title>product-hunt</title>
    <g id="Page-1" stroke="none" stroke-width="1" fill="none" fill-rule="evenodd">
        <g id="book2-home-copy" transform="translate(-822.000000, -1006.000000)" fill-rule="nonzero">
            <g id="Group-24" transform="translate(354.000000, 941.000000)">
                <g id="product-hunt" transform="translate(468.000000, 65.000000)">
                    <path d="M25.0463279,12.5315315 C25.0463279,19.4552027 19.442212,25.0630631 12.523164,25.0630631 C5.60411587,25.0630631 0,19.4552027 0,12.5315315 C0,5.60786036 5.60411587,0 12.523164,0 C19.442212,0 25.0463279,5.60786036 25.0463279,12.5315315" id="Fill-1" fill="#95A5A6"></path>
                    <path d="M14.1929191,12.5315315 L10.6446894,12.5315315 L10.6446894,8.77207207 L14.1929191,8.77207207 C15.2260802,8.77207207 16.0713937,9.61795045 16.0713937,10.6518018 C16.0713937,11.6856532 15.2260802,12.5315315 14.1929191,12.5315315 M14.1929191,6.26576577 L8.14005657,6.26576577 L8.14005657,18.7972973 L10.6446894,18.7972973 L10.6446894,15.0378378 L14.1929191,15.0378378 C16.6140642,15.0378378 18.5760265,13.0745646 18.5760265,10.6518018 C18.5760265,8.22903904 16.6140642,6.26576577 14.1929191,6.26576577" id="Fill-3" fill="#FFFFFF"></path>
                    <path d="M38.206086,10.9964189 C38.206086,10.3071847 37.6738516,9.88946697 36.9850775,9.88946697 L35.1379109,9.88946697 L35.1379109,12.0929279 L36.9850775,12.0929279 C37.6738516,12.0929279 38.206086,11.6752102 38.206086,10.9964189 L38.206086,10.9964189 Z M33.3951039,16.7087087 L33.3951039,8.35435435 L37.2355408,8.35435435 C39.0200917,8.35435435 39.9906369,9.55529279 39.9906369,10.9964189 C39.9906369,12.4271021 39.0096557,13.6280405 37.2355408,13.6280405 L35.1483468,13.6280405 L35.1483468,16.7087087 L33.3951039,16.7087087 Z" id="Fill-5" fill="#95A5A6"></path>
                    <path d="M41.0446699,16.7087087 L41.0446699,10.620473 L42.6100653,10.620473 L42.6100653,11.4245796 C43.0379401,10.9128754 43.768458,10.4742718 44.5094119,10.4742718 L44.5094119,11.9989414 C44.3946162,11.9780556 44.2589486,11.9676126 44.0815371,11.9676126 C43.5597386,11.9676126 42.8709646,12.260015 42.6205013,12.6464039 L42.6205013,16.7191517 L41.0446699,16.7191517 L41.0446699,16.7087087 Z" id="Fill-7" fill="#95A5A6"></path>
                    <path d="M49.7587048,13.5862688 C49.7587048,12.6672898 49.2160343,11.8631832 48.2350532,11.8631832 C47.2645079,11.8631832 46.7218375,12.6672898 46.7218375,13.5862688 C46.7218375,14.5261336 47.2645079,15.3197973 48.2350532,15.3197973 C49.2160343,15.3197973 49.7587048,14.5156907 49.7587048,13.5862688 M45.0938262,13.5862688 C45.0938262,11.904955 46.2730908,10.4742718 48.2246172,10.4742718 C50.1970155,10.4742718 51.3762801,11.904955 51.3762801,13.5862688 C51.3762801,15.2675826 50.1970155,16.7087087 48.2246172,16.7087087 C46.2730908,16.7087087 45.0938262,15.2675826 45.0938262,13.5862688" id="Fill-9" fill="#95A5A6"></path>
                    <path d="M56.636009,14.641006 L56.636009,12.5419745 C56.3751097,12.1451426 55.8115673,11.8631832 55.3002048,11.8631832 C54.4027114,11.8631832 53.7869892,12.5628604 53.7869892,13.5862688 C53.7869892,14.6201201 54.4027114,15.3197973 55.3002048,15.3197973 C55.8115673,15.3197973 56.3751097,15.0378378 56.636009,14.641006 Z M56.636009,16.7087087 L56.636009,15.8001727 C56.1663903,16.3954204 55.5297962,16.7087087 54.7992783,16.7087087 C53.3069346,16.7087087 52.1694138,15.5808709 52.1694138,13.5862688 C52.1694138,11.6543243 53.2860626,10.4742718 54.7992783,10.4742718 C55.4984882,10.4742718 56.1663903,10.7666742 56.636009,11.3828078 L56.636009,8.35435435 L58.2118404,8.35435435 L58.2118404,16.7087087 L56.636009,16.7087087 Z" id="Fill-11" fill="#95A5A6"></path>
                    <path d="M63.7637765,16.7087087 L63.7637765,15.8106156 C63.3567736,16.2492192 62.6471277,16.7087087 61.6765825,16.7087087 C60.3720862,16.7087087 59.756364,15.9985886 59.756364,14.8394219 L59.756364,10.620473 L61.3217595,10.620473 L61.3217595,14.2232883 C61.3217595,15.0482808 61.7496343,15.3197973 62.4175363,15.3197973 C63.0228226,15.3197973 63.5028772,14.9856231 63.7742124,14.641006 L63.7742124,10.620473 L65.3396079,10.620473 L65.3396079,16.7087087 L63.7637765,16.7087087 Z" id="Fill-13" fill="#95A5A6"></path>
                    <path d="M66.4980006,13.5862688 C66.4980006,11.7691967 67.8233688,10.4742718 69.6496635,10.4742718 C70.870672,10.4742718 71.6011899,11.0068619 71.9977568,11.5498949 L70.9750317,12.5106456 C70.6932605,12.0929279 70.2653857,11.8736261 69.7227153,11.8736261 C68.773042,11.8736261 68.1155759,12.5628604 68.1155759,13.5967117 C68.1155759,14.6305631 68.783478,15.3302402 69.7227153,15.3302402 C70.2653857,15.3302402 70.6932605,15.0796096 70.9750317,14.6827778 L71.9977568,15.6435285 C71.6011899,16.1865616 70.870672,16.7295946 69.6496635,16.7295946 C67.8233688,16.7087087 66.4980006,15.4137838 66.4980006,13.5862688" id="Fill-15" fill="#95A5A6"></path>
                    <path d="M73.3439969,15.0691667 L73.3439969,11.9780556 L72.3630157,11.9780556 L72.3630157,10.61003 L73.3439969,10.61003 L73.3439969,8.99137387 L74.9093924,8.99137387 L74.9093924,10.620473 L76.1095289,10.620473 L76.1095289,11.9884985 L74.9093924,11.9884985 L74.9093924,14.6618919 C74.9093924,15.0482808 75.1076758,15.3302402 75.4520628,15.3302402 C75.6816542,15.3302402 75.9112455,15.2466967 75.9947332,15.1422673 L76.3286843,16.3327628 C76.0990929,16.5416216 75.6816542,16.7191517 75.024188,16.7191517 C73.9179752,16.7087087 73.3439969,16.1447898 73.3439969,15.0691667" id="Fill-17" fill="#95A5A6"></path>
                    <polygon id="Fill-19" fill="#95A5A6" points="86.1071881 16.7087087 86.1071881 13.1058934 82.2354433 13.1058934 82.2354433 16.7087087 80.4926363 16.7087087 80.4926363 8.35435435 82.2354433 8.35435435 82.2354433 11.5812237 86.1071881 11.5812237 86.1071881 8.35435435 87.8708671 8.35435435 87.8708671 16.7087087"></polygon>
                    <path d="M93.454111,16.7087087 L93.454111,15.8106156 C93.0471082,16.2492192 92.3374622,16.7087087 91.366917,16.7087087 C90.0624208,16.7087087 89.4466985,15.9985886 89.4466985,14.8394219 L89.4466985,10.620473 L91.012094,10.620473 L91.012094,14.2232883 C91.012094,15.0482808 91.4399688,15.3197973 92.1078709,15.3197973 C92.7131571,15.3197973 93.1932117,14.9856231 93.464547,14.641006 L93.464547,10.620473 L95.0299425,10.620473 L95.0299425,16.7087087 L93.454111,16.7087087 Z" id="Fill-21" fill="#95A5A6"></path>
                    <path d="M100.571443,16.7087087 L100.571443,12.9701351 C100.571443,12.1451426 100.143568,11.8631832 99.4756657,11.8631832 C98.8599434,11.8631832 98.3903248,12.2078003 98.1189896,12.5524174 L98.1189896,16.7087087 L96.5535941,16.7087087 L96.5535941,10.620473 L98.1189896,10.620473 L98.1189896,11.3828078 C98.5051205,10.9442042 99.2356383,10.4742718 100.195748,10.4742718 C101.51068,10.4742718 102.136838,11.2157207 102.136838,12.3644444 L102.136838,16.7087087 L100.571443,16.7087087 Z" id="Fill-23" fill="#95A5A6"></path>
                    <path d="M104.015313,15.0691667 L104.015313,11.9780556 L103.034331,11.9780556 L103.034331,10.61003 L104.015313,10.61003 L104.015313,8.99137387 L105.580708,8.99137387 L105.580708,10.620473 L106.780845,10.620473 L106.780845,11.9884985 L105.580708,11.9884985 L105.580708,14.6618919 C105.580708,15.0482808 105.778992,15.3302402 106.123379,15.3302402 C106.35297,15.3302402 106.582561,15.2466967 106.666049,15.1422673 L107,16.3327628 C106.770409,16.5416216 106.35297,16.7191517 105.695504,16.7191517 C104.589291,16.7087087 104.015313,16.1447898 104.015313,15.0691667" id="Fill-25" fill="#95A5A6"></path>
                </g>
            </g>
        </g>
    </g>
</svg>