<?xml version="1.0" encoding="UTF-8"?>
<svg width="73px" height="19px" viewBox="0 0 73 19" version="1.1" xmlns="http://www.w3.org/2000/svg" xmlns:xlink="http://www.w3.org/1999/xlink">
    <title>quora</title>
    <g id="Page-1" stroke="none" stroke-width="1" fill="none" fill-rule="evenodd">
        <g id="book2-home-copy" transform="translate(-524.000000, -1010.000000)" fill="#95A5A6" fill-rule="nonzero">
            <g id="Group-24" transform="translate(354.000000, 941.000000)">
                <g id="quora" transform="translate(170.000000, 69.000000)">
                    <path d="M10.3938027,14.8153637 C9.69374414,13.5196562 8.87249414,12.2109434 7.27048633,12.2109434 C6.96422852,12.2109434 6.65839844,12.2585403 6.37766211,12.3790743 L5.83344141,11.354736 C6.49657227,10.819774 7.56833203,10.3955586 8.9457793,10.3955586 C11.0887285,10.3955586 12.1884336,11.3662666 13.061582,12.60526 C13.5798535,11.5474028 13.8262285,10.1188263 13.8262285,8.34808872 C13.8262285,3.92627248 12.3556777,1.65570069 8.92054297,1.65570069 C5.5355957,1.65570069 4.0730293,3.92627248 4.0730293,8.34808872 C4.0730293,12.7467099 5.5355957,14.9938184 8.92068555,14.9938184 C9.45863281,14.9938184 9.94582227,14.938177 10.3938027,14.8153637 Z M11.232875,16.3585748 C10.4908984,16.5456104 9.70244141,16.6488487 8.92054297,16.6488487 C4.4132207,16.6488487 0,13.2667895 0,8.34822279 C0,3.38272964 4.4132207,0 8.92054297,0 C13.5035742,0 17.8744492,3.35859602 17.8744492,8.34808872 C17.8744492,11.1234555 16.4971445,13.3788767 14.4956328,14.8366817 C15.1423672,15.7478601 15.808207,16.3530777 16.73525,16.3530777 C17.7469844,16.3530777 18.155043,15.6178067 18.2233379,15.0411471 L19.5410449,15.0411471 C19.6180371,15.8089986 19.2095508,19 15.527043,19 C13.2965508,19 12.1172871,17.7843357 11.232875,16.3585748 Z M20.772207,12.1392129 L20.772207,6.45306292 C20.772207,5.80547734 20.5177051,5.51788499 19.7268242,5.51788499 L18.8847578,5.51788499 L18.8847578,4.00685197 L24.3864199,4.00685197 L24.3864199,12.0674824 C24.3864199,13.4263395 25.1686035,14.0255238 26.3597012,14.0255238 C27.3370742,14.0255238 28.314875,13.6188722 28.8422715,12.6903981 L28.8422715,6.45306292 C28.8422715,5.80534327 28.5870566,5.51775092 27.7966035,5.51775092 L26.9037793,5.51775092 L26.9037793,4.0067179 L32.4569121,4.0067179 L32.4569121,12.4502685 C32.4569121,13.2911912 32.7882637,13.6745136 33.8085527,13.6745136 L33.9873457,13.6745136 L33.9873457,15.2338139 L29.021207,15.9772636 L29.021207,14.3702324 L28.9189785,14.3702324 C27.9582871,15.4730049 26.6063613,16.217125 24.6758535,16.217125 C22.5072402,16.217125 20.7720645,15.1860829 20.7720645,12.1392129 L20.772207,12.1392129 Z M41.2103535,14.7062261 C43.1663828,14.7062261 43.9095,13.1060327 43.9485664,9.88405981 C43.9864922,6.73247666 43.1663828,5.20682939 41.2103535,5.20682939 C39.5014121,5.20682939 38.4297949,6.73328111 38.4297949,9.88405981 C38.4297949,13.1067031 39.483875,14.7062261 41.2103535,14.7062261 Z M41.2103535,16.217125 C37.6729902,16.217125 34.483375,13.6737092 34.483375,9.88405981 C34.483375,6.16547057 37.5961406,3.69458969 41.2102109,3.69458969 C44.9775527,3.69458969 47.9963594,6.21293336 47.9963594,9.88405981 C47.9963594,13.6737092 44.9775527,16.217125 41.2103535,16.217125 Z M48.1102793,15.9771295 L48.1102793,14.4659624 L48.6460879,14.4659624 C49.9729199,14.4659624 50.1003848,14.1062373 50.1003848,13.026794 L50.1003848,6.45306292 C50.1003848,5.80547734 49.7432266,5.51788499 48.9271094,5.51788499 L48.212793,5.51788499 L48.212793,4.00685197 L53.2549258,4.00685197 L53.5101406,6.47786693 L53.6126543,6.47786693 C54.1739844,4.70190035 55.6788965,3.76632019 57.0901348,3.76632019 C58.254998,3.76632019 59.1646465,4.39030844 59.1646465,5.65410589 C59.1646465,6.53350834 58.7149551,7.46949072 57.4561328,7.46949072 C56.3246328,7.46949072 56.104207,6.7493702 55.1683242,6.7493702 C54.3353828,6.7493702 53.6886484,7.49349027 53.6886484,8.58835235 L53.6886484,13.026794 C53.6886484,14.1061033 53.9695273,14.4659624 55.2708379,14.4659624 L56.0103906,14.4659624 L56.0103906,15.9771295 L48.1101367,15.9771295 L48.1102793,15.9771295 Z M64.896002,14.2180565 C66.5034277,14.2180565 67.1662734,12.7867985 67.1662734,11.3483004 L67.1662734,9.42833654 C65.9931406,10.5711977 63.2629121,10.6114204 63.2629121,12.6505776 C63.2629121,13.6501118 63.8928223,14.2180565 64.8958594,14.2180565 L64.896002,14.2180565 Z M67.2432656,14.2098778 C66.579707,15.4091849 65.2186563,16.2169909 63.3143828,16.2169909 C61.1035664,16.2169909 59.6749336,15.1128776 59.6749336,13.170255 C59.6749336,9.26074193 65.4656016,10.2996944 67.1662734,7.70935213 L67.1662734,7.42913394 C67.1662734,5.43837811 66.3329043,5.12665213 65.4145586,5.12665213 C62.8380293,5.12665213 64.0111621,7.732145 61.6386621,7.732145 C60.4994629,7.732145 60.057043,7.08549795 60.057043,6.35786918 C60.057043,4.88638849 61.9280957,3.69472377 65.4405078,3.69472377 C68.7645742,3.69472377 70.8060078,4.55857343 70.8060078,7.66939758 L70.8060078,12.6348907 C70.8060078,13.40234 71.1038535,13.8187791 71.8181699,13.8187791 C72.124,13.8187791 72.3790723,13.7387359 72.5744043,13.6106936 L73,14.5854239 C72.6511113,15.0896825 71.7239258,15.9772636 69.9635137,15.9772636 C68.4335078,15.9772636 67.4723887,15.3055444 67.3446387,14.2100119 L67.2432656,14.2100119 L67.2432656,14.2098778 Z" id="Shape"></path>
                </g>
            </g>
        </g>
    </g>
</svg>