<?xml version="1.0" encoding="UTF-8"?>
<svg width="91px" height="22px" viewBox="0 0 91 22" version="1.1" xmlns="http://www.w3.org/2000/svg" xmlns:xlink="http://www.w3.org/1999/xlink">
    <title>square</title>
    <g id="Page-1" stroke="none" stroke-width="1" fill="none" fill-rule="evenodd">
        <g id="book2-home-copy" transform="translate(-667.000000, -1064.000000)" fill="#95A5A6">
            <g id="Group-24" transform="translate(354.000000, 941.000000)">
                <g id="square" transform="translate(313.000000, 123.000000)">
                    <path d="M3.76204358,1.5467989e-07 L18.7522946,1.5467989e-07 C19.7501915,-0.000282524318 20.7074602,0.386894152 21.4131824,1.07633015 C22.1189046,1.76576014 22.5154639,2.70095014 22.5154639,3.67610013 L22.5154639,18.3228 C22.5154639,20.3537 20.8305727,22.0000002 18.7522946,22.0000002 L3.76204358,22.0000002 C1.68414413,21.9994 0,20.3533 0,18.3228 L0,3.67610013 C0,1.64584014 1.68431811,1.5467989e-07 3.76204358,1.5467989e-07 Z M17.237182,18.0005 C17.8929633,18.0005 18.4246087,17.481 18.4246087,16.8402 L18.4213339,5.16083012 C18.4213339,4.52004012 17.8896885,4.00058013 17.2339072,4.00058013 L5.28258011,4.00058013 C4.96748171,4.00058013 4.66529836,4.12297013 4.44259062,4.34079012 C4.21988288,4.55861012 4.09491807,4.85400012 4.09520412,5.16190012 L4.09520412,16.8402 C4.09520412,17.481 4.62680907,18.0005 5.28258011,18.0005 L17.237182,18.0005 Z" id="Shape"></path>
                    <path d="M9.16635057,13.7476472 C8.76608377,13.7445457 8.44329897,13.4265908 8.44329897,13.035377 L8.44329897,8.04907931 C8.44237718,7.85956838 8.51875136,7.677501 8.65555515,7.54317497 C8.79234799,7.40884895 8.97827683,7.33333333 9.17219437,7.33333333 L14.2814728,7.33333333 C14.4752809,7.33363279 14.6609909,7.40924465 14.7977837,7.54350651 C14.9344671,7.67777906 15.0109617,7.85966463 15.0103093,8.04907931 L15.0103093,13.0342006 C15.0109617,13.2236045 14.9344671,13.4055222 14.7977837,13.5397413 C14.6609909,13.6740673 14.4752809,13.7496792 14.2814728,13.75 L9.16635057,13.7476472 Z" id="Path" fill-rule="nonzero"></path>
                    <path d="M34.4318305,9.90891184 C33.728715,9.71859867 33.0630783,9.53921939 32.5462214,9.31062225 C31.5896333,8.88622963 31.1444301,8.29776723 31.1444301,7.45992612 C31.1444301,5.87612135 32.6872574,5.1629696 34.2235802,5.1629696 C35.6837064,5.1629696 36.958813,5.76236589 37.8151478,6.84959594 L37.8734826,6.92397097 L39.1078065,5.96581612 L39.0483359,5.89143084 C37.909929,4.45419345 36.2237941,3.66666667 34.2984347,3.66666667 C33.0168235,3.66666667 31.8419702,4.01011573 30.9923465,4.63466919 C30.0357584,5.32922206 29.5309814,6.33660502 29.5309814,7.53867675 C29.5309814,10.3333557 32.1824804,11.0146998 34.3139218,11.5627263 C36.4706588,12.1271485 37.7920203,12.5558962 37.7920203,14.1877814 C37.7920203,15.7945606 36.4827388,16.8326138 34.4571261,16.8326138 C33.4554188,16.8326138 31.6006808,16.5690528 30.4347067,14.8014932 L30.3807083,14.718285 L29.0824742,15.6513031 L29.1331687,15.7268259 C30.2352326,17.3827922 32.1373613,18.3333333 34.3580085,18.3333333 C37.374281,18.3333333 39.4020619,16.6433459 39.4020619,14.129884 C39.4020619,11.2531548 36.6447341,10.5082774 34.4318305,9.90891184 Z" id="Path" fill-rule="nonzero"></path>
                    <path d="M49.2521517,9.09073194 L49.2521517,7.57167734 L50.6597938,7.57167734 L50.6597938,22 L49.2521517,22 L49.2521517,16.3630746 C48.4483427,17.4955225 47.2426793,18.1149988 45.8253238,18.1149988 C43.1489313,18.1149988 41.2783505,15.912771 41.2783505,12.7329643 C41.2783505,9.55314731 43.1531371,7.33333333 45.8253238,7.33333333 C47.2330661,7.33333333 48.4387295,7.95611279 49.2521517,9.09073194 Z M42.7619975,12.7153679 C42.7619975,15.6590121 44.402661,16.7080056 45.9385801,16.7080056 L45.9417845,16.7090347 C47.9523584,16.7090347 49.2521517,15.127415 49.2521517,12.7153679 C49.2521517,10.3033207 47.9502555,8.74364001 45.9385801,8.74364001 C43.5967491,8.74364001 42.7619975,10.795403 42.7619975,12.7153679 Z" id="Shape"></path>
                    <path d="M60.4730719,8.25 L60.4730719,13.6954632 C60.4730719,15.6017365 59.1107593,16.9859345 57.2344478,16.9859345 C55.676023,16.9859345 54.9176539,16.0995086 54.9176539,14.2773617 L54.9176539,8.25 L53.4742268,8.25 L53.4742268,14.559849 C53.4742268,16.9228643 54.8145666,18.3333333 57.0590763,18.3333333 C58.457531,18.3333333 59.6587441,17.76521 60.4740987,16.7264711 L60.4740987,18.1086029 L61.9175258,18.1086029 L61.9175258,8.25 L60.4730719,8.25 Z" id="Path" fill-rule="nonzero"></path>
                    <path d="M64.3625079,9.48255389 C65.4623286,8.69885489 66.9552153,8.25 68.4560609,8.25 C70.8268727,8.25 72.2415495,9.31923595 72.237103,11.1125866 L72.237103,18.1135489 L70.7442058,18.1135489 L70.7442058,17.0442648 C69.9908647,17.8998268 68.9012315,18.3333333 67.4989707,18.3333333 C65.2142216,18.3333333 63.7938144,17.2003464 63.7938144,15.3782717 C63.7938144,13.0086605 66.2563134,12.636836 67.3053029,12.4786374 C67.4762611,12.4530408 67.6529498,12.4284065 67.8295324,12.4036759 L67.8297446,12.4036759 L67.8361118,12.4028099 C69.2692533,12.2027521 70.7486628,11.9963433 70.7486628,10.8938607 C70.7486628,9.6458622 68.9623562,9.54931678 68.4153111,9.54931678 C67.4490946,9.54931678 66.0841878,9.80918014 65.1564927,10.5383949 L65.0715972,10.6051771 L64.2922569,9.53288106 L64.3625079,9.48255389 Z M65.3513278,15.3022517 C65.3513278,16.8470939 66.9552153,17.0144342 67.645097,17.0144342 L67.6461582,17.0144342 C69.1459426,17.0144342 70.7509974,16.2893572 70.747607,14.2515396 L70.747607,12.8566205 C70.0199414,13.2733834 68.9843229,13.4362009 68.0605542,13.5814088 L68.0449546,13.5839107 L67.5816376,13.6588722 C66.1023342,13.9074288 65.3513278,14.2278676 65.3513278,15.3022517 Z" id="Shape"></path>
                    <path d="M80.6195571,8.62544678 C80.291096,8.39027259 79.7737771,8.25 79.234338,8.25 C78.125966,8.26464281 77.0888705,8.80163476 76.4335212,9.70012232 L76.4335212,8.43456659 L75.0515464,8.43456659 L75.0515464,18.3333333 L76.4335212,18.3333333 L76.4335212,13.039098 C76.4335212,10.6915058 77.7463826,9.63999985 79.0464633,9.63999985 C79.4270299,9.63489167 79.8037623,9.71523939 80.1494281,9.87518393 L80.2428247,9.92475409 L80.6804124,8.66553172 L80.6195571,8.62544678 Z" id="Path" fill-rule="nonzero"></path>
                    <path d="M81.6185567,13.3183299 C81.6185567,10.334682 83.5867438,8.25 86.4005488,8.25 C89.1110062,8.25 91.0053735,10.1004207 90.9999885,12.7542624 C90.9991625,12.984991 90.9857222,13.2154309 90.959758,13.4447157 L90.9510015,13.5238392 L83.125905,13.5238392 C83.1617457,15.6475632 84.513818,17.0171115 86.5885091,17.0171115 C87.777567,17.0171115 88.8077852,16.5599858 89.4892687,15.7287081 L89.5511755,15.6527611 L90.588012,16.526007 L90.5304835,16.5917507 C89.8413634,17.3859694 88.5850023,18.3333333 86.5091911,18.3333333 C83.5856238,18.3333333 81.6185567,16.3184763 81.6185567,13.3183299 Z M86.361348,9.54868374 C84.6126855,9.54868374 83.3726156,10.6366988 83.179157,12.3310192 L89.4871305,12.3310192 C89.3632151,10.9685939 88.4828765,9.54868374 86.361348,9.54868374 Z" id="Shape"></path>
                </g>
            </g>
        </g>
    </g>
</svg>