<?xml version="1.0" encoding="UTF-8"?>
<svg width="80px" height="27px" viewBox="0 0 80 27" version="1.1" xmlns="http://www.w3.org/2000/svg" xmlns:xlink="http://www.w3.org/1999/xlink">
    <title>twitch</title>
    <g id="Page-1" stroke="none" stroke-width="1" fill="none" fill-rule="evenodd">
        <g id="book2-home-copy" transform="translate(-836.000000, -1063.000000)" fill-rule="nonzero">
            <g id="Group-24" transform="translate(354.000000, 941.000000)">
                <g id="twitch" transform="translate(482.000000, 122.000000)">
                    <polygon id="Path" fill="#FFFFFF" points="11.9298246 12.0796579 7.01754386 12.0796579 7.01754386 13.5 11.9298246 13.5 11.9298246 19.1849211 4.21052632 19.1849211 1.40350877 16.3428158 1.40350877 1.42105263 7.01754386 1.42105263 7.01754386 6.39473684 11.9298246 6.39473684"></polygon>
                    <polygon id="Path" fill="#FFFFFF" points="32.9824561 19.1849211 16.1403509 19.1849211 13.3333333 16.3428158 13.3333333 6.39473684 18.9473684 6.39473684 18.9473684 13.5 20.3508772 13.5 20.3508772 6.39473684 25.9649123 6.39473684 25.9649123 13.5 27.3684211 13.5 27.3684211 6.39473684 32.9824561 6.39473684"></polygon>
                    <rect id="Rectangle" fill="#FFFFFF" x="34.3859649" y="6.39473684" width="5.61403509" height="12.7894737"></rect>
                    <rect id="Rectangle" fill="#FFFFFF" x="34.3859649" y="1.42105263" width="5.61403509" height="3.55263158"></rect>
                    <polygon id="Path" fill="#FFFFFF" points="51.9298246 12.0796579 47.0175439 12.0796579 47.0175439 13.5 51.9298246 13.5 51.9298246 19.1849211 44.2105263 19.1849211 41.4035088 16.3428158 41.4035088 1.42105263 47.0175439 1.42105263 47.0175439 6.39473684 51.9298246 6.39473684"></polygon>
                    <polygon id="Path" fill="#FFFFFF" points="64.5614035 12.0796579 58.9473684 12.0796579 58.9473684 13.5 64.5614035 13.5 64.5614035 19.1849211 56.1403509 19.1849211 53.3333333 16.3428158 53.3333333 9.23755263 56.1403509 6.39473684 64.5614035 6.39473684"></polygon>
                    <polygon id="Path" fill="#FFFFFF" points="78.5964912 19.1849211 72.9824561 19.1849211 72.9824561 12.0796579 71.5789474 12.0796579 71.5789474 19.1849211 65.9649123 19.1849211 65.9649123 1.42105263 71.5789474 1.42105263 71.5789474 6.39473684 75.7894737 6.39473684 78.5964912 9.23755263"></polygon>
                    <path d="M76.4912281,4.97368421 L72.9824561,4.97368421 L72.9824561,0 L65.2778947,0 L61.7347368,4.97368421 L55.4385965,4.97368421 L53.3333333,7.10526316 L53.3333333,4.97368421 L48.4210526,4.97368421 L48.4210526,0 L32.9824561,0 L32.9824561,4.97368421 L11.2631579,4.97368421 L7.71929825,0 L0,0 L0,17.0526316 L9.8245614,27 L19.6491228,27 L19.6491228,24.1578947 L22.4561404,27 L41.4035088,27 L41.4035088,24.1578947 L44.2105263,27 L53.3333333,27 L53.3333333,24.1578947 L56.1403509,27 L73.6842105,27 L80,20.6052632 L80,8.52631579 L76.4912281,4.97368421 Z M11.9298246,12.0789474 L7.01754386,12.0789474 L7.01754386,13.5 L11.9298246,13.5 L11.9298246,19.1842105 L4.21052632,19.1842105 L1.40350877,16.3421053 L1.40350877,1.42105263 L7.01754386,1.42105263 L7.01754386,6.39473684 L11.9298246,6.39473684 L11.9298246,12.0789474 Z M32.9824561,19.1842105 L16.1403509,19.1842105 L13.3333333,16.3421053 L13.3333333,6.39473684 L18.9473684,6.39473684 L18.9473684,13.5 L20.3508772,13.5 L20.3508772,6.39473684 L25.9649123,6.39473684 L25.9649123,13.5 L27.3684211,13.5 L27.3684211,6.39473684 L32.9824561,6.39473684 L32.9824561,19.1842105 Z M40,19.1842105 L34.3859649,19.1842105 L34.3859649,6.39473684 L40,6.39473684 L40,19.1842105 Z M40,4.97368421 L34.3859649,4.97368421 L34.3859649,1.42105263 L40,1.42105263 L40,4.97368421 Z M51.9298246,12.0789474 L47.0175439,12.0789474 L47.0175439,13.5 L51.9298246,13.5 L51.9298246,19.1842105 L44.2105263,19.1842105 L41.4035088,16.3421053 L41.4035088,1.42105263 L47.0175439,1.42105263 L47.0175439,6.39473684 L51.9298246,6.39473684 L51.9298246,12.0789474 Z M64.5614035,12.0789474 L58.9473684,12.0789474 L58.9473684,13.5 L64.5614035,13.5 L64.5614035,19.1842105 L56.1403509,19.1842105 L53.3333333,16.3421053 L53.3333333,9.23684211 L56.1403509,6.39473684 L64.5614035,6.39473684 L64.5614035,12.0789474 Z M78.5964912,19.1842105 L72.9824561,19.1842105 L72.9824561,12.0789474 L71.5789474,12.0789474 L71.5789474,19.1842105 L65.9649123,19.1842105 L65.9649123,1.42105263 L71.5789474,1.42105263 L71.5789474,6.39473684 L75.7894737,6.39473684 L78.5964912,9.23684211 L78.5964912,19.1842105 Z" id="Shape" fill="#95A5A6"></path>
                </g>
            </g>
        </g>
    </g>
</svg>