<svg xmlns="http://www.w3.org/2000/svg" xmlns:xlink="http://www.w3.org/1999/xlink" width="75" height="15"><defs><path id="a" d="M7.457.72c-.176 0-.352.1-.434.259L4.85 4.968l-4.449.835a.507.507 0 00-.27.836l3.105 3.306-.575 4.495c-.053.393.357.67.704.517l4.092-1.936 4.09 1.936c.347.153.757-.124.705-.517l-.576-4.495 3.106-3.306a.507.507 0 00-.27-.836l-4.45-.835L7.892.979a.497.497 0 00-.435-.26z"/><path id="b" d="M22.457.72c-.176 0-.352.1-.434.259L19.85 4.968l-4.449.835a.507.507 0 00-.27.836l3.105 3.306-.575 4.495c-.053.393.357.67.704.517l4.092-1.936 4.09 1.936c.347.153.757-.124.705-.517l-.576-4.495 3.106-3.306a.507.507 0 00-.27-.836l-4.45-.835-2.17-3.989a.497.497 0 00-.435-.26z"/><path id="c" d="M37.457.72c-.176 0-.352.1-.434.259L34.85 4.968l-4.449.835a.507.507 0 00-.27.836l3.105 3.306-.575 4.495c-.053.393.357.67.704.517l4.092-1.936 4.09 1.936c.347.153.757-.124.705-.517l-.576-4.495 3.106-3.306a.507.507 0 00-.27-.836l-4.45-.835-2.17-3.989a.497.497 0 00-.435-.26z"/><path id="d" d="M52.457.72c-.176 0-.352.1-.434.259L49.85 4.968l-4.449.835a.507.507 0 00-.27.836l3.105 3.306-.575 4.495c-.053.393.357.67.704.517l4.092-1.936 4.09 1.936c.347.153.757-.124.705-.517l-.576-4.495 3.106-3.306a.507.507 0 00-.27-.836l-4.45-.835-2.17-3.989a.497.497 0 00-.435-.26z"/></defs><g fill="none" fill-rule="evenodd"><use fill="#FFCA00" xlink:href="#a"/><path stroke="#BB8302" d="M7.457 1.227L5.176 5.415l-.233.044-4.445.835c.005-.001.002.008-.003.003l3.267 3.478-.03.234-.575 4.493-.005.003.005-.002v-.001l4.3-2.034.214.101 4.078 1.93c.003.002.006 0 .007.004l-.605-4.728.161-.172 3.104-3.305c-.003.004-.006-.005.003-.003l-4.682-.88-.114-.208-2.166-3.98zM.495 6.297z"/><use fill="#FFCA00" xlink:href="#b"/><path stroke="#BB8302" d="M22.46 1.22l.002-.002-.001.002zm-.003.007l-2.281 4.188-.233.044-4.445.835c.005-.001.002.008-.003.003l3.267 3.478-.03.234-.575 4.493-.005.003.005-.002v-.001l4.3-2.034.214.101 4.078 1.93c.003.002.006 0 .007.004l-.605-4.728.161-.172 3.104-3.305c-.003.004-.006-.005.003-.003l-4.682-.88-.114-.208-2.166-3.98zm-4.305 13.278zm4.3-13.286l-.005-.01.006.01z"/><use fill="#FFCA00" xlink:href="#c"/><path stroke="#BB8302" d="M37.457 1.227l-2.281 4.188-.233.044-4.445.835c.005-.001.002.008-.003.003l3.267 3.478-.03.234-.575 4.493-.005.003.005-.002v-.001l4.3-2.034.214.101 4.078 1.93c.003.002.006 0 .007.004l-.605-4.728.161-.172 3.104-3.305c-.003.004-.006-.005.003-.003l-4.682-.88-.114-.208-2.166-3.98zm-6.962 5.07zm2.657 8.208z"/><use fill="#FFCA00" xlink:href="#d"/><path stroke="#BB8302" d="M52.46 1.22l.002-.002-.001.002zm-.003.007l-2.281 4.188-.233.044-4.445.835c.005-.001.002.008-.003.003l3.267 3.478-.03.234-.575 4.493-.005.003.005-.002v-.001l4.3-2.034.214.101 4.078 1.93c.003.002.006 0 .007.004l-.605-4.728.161-.172 3.104-3.305c-.003.004-.006-.005.003-.003l-4.682-.88-.114-.208-2.166-3.98zm-4.305 13.278zm4.3-13.286l-.005-.01.006.01z"/><path fill="#FFCA00" d="M67.913 13.237V1.02L67.89.98a.497.497 0 00-.434-.26.497.497 0 00-.434.26L64.85 4.968l-4.45.835a.507.507 0 00-.27.836l3.105 3.306-.575 4.495c-.052.393.358.67.704.517l4.091-1.936.457.216z"/><path stroke="#BB8302" d="M67.457 1.227l-2.281 4.188-.233.044-4.445.835c.005-.001.002.008-.003.003l3.267 3.478-.03.234-.575 4.493-.005.003.005-.002v-.001l4.3-2.034.214.101 4.078 1.93c.003.002.006 0 .007.004l-.605-4.728.161-.172 3.104-3.305c-.003.004-.006-.005.003-.003l-4.682-.88-.114-.208-2.166-3.98zm-4.305 13.278zm4.3-13.286l-.005-.01.006.01z"/></g></svg>