<svg xmlns="http://www.w3.org/2000/svg" width="41" height="25"><g fill="none" stroke="#3586F8"><path stroke-width="2" d="M33.15 6.545c-1.935-1.581-3.91-2.843-5.869-3.751-2.48-1.15-4.944-1.733-7.324-1.733-2.378 0-4.843.583-7.324 1.733-1.96.908-3.933 2.17-5.87 3.75-3.28 2.681-5.296 5.325-5.381 5.436a.743.743 0 000 .899c.084.11 2.1 2.754 5.381 5.434 1.936 1.58 3.91 2.843 5.87 3.75 2.481 1.15 4.944 1.734 7.324 1.734s4.843-.583 7.324-1.733c1.96-.908 3.934-2.17 5.87-3.75 3.28-2.68 5.296-5.324 5.381-5.435h-.001a.74.74 0 000-.899c-.084-.111-2.1-2.755-5.38-5.434h0z"/><path stroke-width="1.8" d="M20 5a6.996 6.996 0 00-7 7 7.002 7.002 0 007 7 7 7 0 007-7 7.005 7.005 0 00-6.999-7h0z"/></g></svg>