<svg xmlns="http://www.w3.org/2000/svg" width="28" height="35"><g fill="#3586F8" fill-rule="evenodd"><path fill-rule="nonzero" d="M17.084 34.838H10.92c-1.099 0-1.99-.866-1.99-1.927V30.37c0-.45.377-.814.84-.814h8.464c.464 0 .84.365.84.814v2.542c-.002 1.061-.893 1.927-1.992 1.927zM10.61 31.18v1.728c0 .167.14.3.31.3h6.163c.17 0 .31-.135.31-.3V31.18H10.61z"/><path fill-rule="nonzero" d="M18.232 31.18h-8.46c-.464 0-.841-.364-.841-.813V30.1c0-2.518-1.243-4.914-3.408-6.571C2.235 20.999.351 17.225.351 13.172c0-3.76 1.663-7.354 4.56-9.863C7.848.769 11.638-.392 15.578.037 21.674.709 26.7 5.46 27.527 11.332c.652 4.69-1.223 9.239-5.016 12.17-2.186 1.682-3.438 4.086-3.438 6.598v.269c0 .45-.377.812-.841.812zm-7.637-1.625h6.813c.17-2.81 1.624-5.455 4.058-7.327 3.327-2.572 4.972-6.562 4.398-10.68-.724-5.147-5.13-9.309-10.474-9.898-3.46-.374-6.783.642-9.359 2.87-2.541 2.2-4 5.351-4 8.65 0 3.554 1.652 6.866 4.536 9.082 2.415 1.85 3.862 4.486 4.028 7.302z"/><path d="M14.005 31.18c-.464 0-.841-.364-.841-.813V14.61c0-.45.377-.814.84-.814.465 0 .842.365.842.814v15.76a.828.828 0 01-.841.812z"/><path fill-rule="nonzero" d="M14.005 15.679H11.3c-1.955 0-3.545-1.54-3.545-3.432 0-1.893 1.59-3.433 3.545-3.433 1.956 0 3.546 1.54 3.546 3.433v2.618a.83.83 0 01-.841.814zM11.3 10.443c-1.027 0-1.863.81-1.863 1.804s.836 1.804 1.863 1.804h1.864v-1.804c0-.995-.837-1.804-1.864-1.804z"/><path fill-rule="nonzero" d="M16.709 15.679h-2.705a.828.828 0 01-.84-.814v-2.619c0-1.892 1.59-3.432 3.545-3.432 1.955 0 3.545 1.54 3.545 3.432 0 1.893-1.59 3.433-3.545 3.433zm-1.866-1.626h1.864c1.027 0 1.863-.81 1.863-1.804 0-.995-.836-1.804-1.863-1.804-1.028 0-1.864.81-1.864 1.804v1.804z"/></g></svg>