<svg xmlns="http://www.w3.org/2000/svg" width="30" height="32"><path fill-rule="evenodd" d="M29.582.158a.941.941 0 00-.881-.087L15 5.781 1.299.07A.941.941 0 000 .94v24.264c0 .38.228.722.578.867l14.063 5.86c.019.007.04.01.06.017l.059.017A.9.9 0 0015 32a.925.925 0 00.299-.053c.02-.006.041-.01.06-.018l14.063-5.86a.94.94 0 00.578-.866V.939a.933.933 0 00-.418-.781zm-1.457 24.416l-12.188 5.081v-16.38a.938.938 0 10-1.874 0v16.38l-12.188-5.08V2.344l12.188 5.081v2.327c0 .519.42.94.937.94a.94.94 0 00.938-.94V7.426l12.187-5.078v22.226z"/></svg>