<svg xmlns="http://www.w3.org/2000/svg" width="36" height="33"><path fill="#3586F8" d="M12.9 19.09c.843 0 1.525.663 1.525 1.48 0 .818-.682 1.48-1.525 1.48-.84 0-1.523-.662-1.523-1.48 0-.817.683-1.48 1.523-1.48zm13.049-5.706c.986 0 1.786.776 1.786 1.734 0 .957-.8 1.734-1.786 1.734s-1.785-.777-1.785-1.734c0-.958.799-1.734 1.785-1.734zM22.864 33h2.058v-1.96h1.313c3.74 0 6.784-2.956 6.784-6.588v-2.068h.064c.947 0 1.808-.428 2.362-1.173a2.734 2.734 0 00.404-2.548L32.577 9.08v-.003C30.966 3.298 25.342-.492 19.17.052 13.411.56 8.766 4.819 7.855 10.299c-4.142.651-7.38 3.934-7.806 8.038a8.88 8.88 0 00.414 3.77l.028.083C1.65 25.66 2.055 29.226 1.703 33h2.064c.346-3.981-.092-7.755-1.318-11.425l-.03-.09a6.916 6.916 0 01-.322-2.947c.349-3.364 3.12-6.027 6.588-6.333 3.58-.316 6.842 1.892 7.759 5.25.01.036.022.072.036.107l2.328 6.82a.3.3 0 01-.046.282.313.313 0 01-.26.13h-.785c-.569 0-1.03.448-1.03 1v2.2c0 1.657-1.389 3.006-3.096 3.006h-1.297v2h1.297c2.842 0 5.156-2.247 5.156-5.007v-1.212a2.406 2.406 0 001.684-.947c.447-.6.57-1.378.33-2.082l-2.342-6.864c-1.066-3.808-4.488-6.443-8.452-6.688.924-4.383 4.718-7.745 9.39-8.158 5.189-.46 9.92 2.743 11.248 7.612.01.041.025.08.04.12l3.25 9.52a.803.803 0 01-.118.747.856.856 0 01-.694.345h-1.094c-.569 0-1.03.447-1.03 1v3.066c0 2.53-2.12 4.59-4.724 4.59l-2.327-.005a.986.986 0 00-.737.286.99.99 0 00-.307.712V33z"/></svg>