<svg xmlns="http://www.w3.org/2000/svg" width="77" height="115"><path fill-rule="evenodd" d="M36.094 36.59v-3.028c0-.598.471-1.078 1.062-1.078.588 0 1.06.48 1.06 1.078v2.78h1.63c.589 0 1.06.48 1.06 1.08 0 .598-.471 1.078-1.06 1.078h-1.871c-1.032 0-1.881-.861-1.881-1.91zm-4.813-7.113c0-.998-.811-1.805-1.804-1.805-.998 0-1.805.811-1.805 1.805 0 .998.813 1.804 1.805 1.804a1.81 1.81 0 001.804-1.804zm16.242 1.804a1.806 1.806 0 100-3.61 1.806 1.806 0 000 3.61zM76.74 92.156a6.234 6.234 0 01-5.915 4.401l-1.297.014.089.687a3.602 3.602 0 01-.56 2.398l1.044 8.087a3.605 3.605 0 01-3.114 4.025L47.53 114.27c-.157.02-.315.028-.47.028a3.57 3.57 0 01-2.193-.75 3.566 3.566 0 01-1.374-2.391l-.717-5.56H20.067a2.286 2.286 0 01-2.294-2.288V88.45l-4.925 16.22a1.31 1.31 0 01-1.257.926H1.312a1.31 1.31 0 01-1.255-1.688l14.178-46.712c.834-2.733 3.381-4.449 6.112-4.388.233-.3.588-.51 1.025-.51h2.937l2.179-2.392c.806-.886 2.24-.947 3.196-.143l.232.197v-2.016c-3.845-2.262-6.173-5.94-7.567-10.375-.171.034-.35.048-.526.048-1.645 0-3.36-1.383-4.207-3.556-1.024-2.63-.336-5.267 1.57-6.003.09-.033.186-.04.273-.068-.62-2.921-2.773-15.239 3.17-22.54C25.66 1.721 30.285-.07 36.336.141c.158.007.313.04.457.101C44.49-.669 50.282.986 53.99 5.15c6.401 7.187 4.447 19.477 3.758 22.855.068.02.143.028.211.054 1.906.743 2.595 3.38 1.57 6.003-.463 1.185-1.215 2.187-2.117 2.827-.675.476-1.399.722-2.096.722-.17 0-.341-.014-.506-.048-1.393 4.448-3.722 8.141-7.574 10.403v1.988l.233-.197c.956-.804 2.39-.743 3.196.143l2.282 2.506c.176.192.307.41.395.642l1.844.012a6.28 6.28 0 011.913 0h.014c.054 0 .108.014.163.014.286.021.566.09.813.211a6.203 6.203 0 013.694 3.251l14.549 30.962c.675 1.457.888 3.127.409 4.659zM55.344 36.094c.25-.007.543-.128.837-.367.525-.431.984-1.164 1.27-2.011.574-1.692.257-3.286-.404-3.582a.642.642 0 00-.267-.056c-.172 0-.362.056-.557.17a55.142 55.142 0 01-.88 5.846zm-33.688 0a53.66 53.66 0 01-.885-5.846 1.117 1.117 0 00-.554-.17.669.669 0 00-.269.056c-.658.296-.97 1.898-.402 3.59.494 1.46 1.439 2.348 2.11 2.37zm37.297 48.125l1.11-.015-1.11-3.595v3.61zm-5.82-28.486l-2.93 2.982-3.448 3.511c-.46.47-1.096.738-1.758.738h-.116a2.254 2.254 0 01-1.648-.818l-1.848-2.292-1.715 6.066a.994.994 0 01-.958.71.984.984 0 01-.958-.71l-1.599-5.663-.118-.403-1.848 2.292a2.217 2.217 0 01-1.646.811h-.118c-.406 0-.793-.108-1.144-.295l6.707 10.977 1.537 2.512 9.644 1.247c.612.08 1.157.388 1.537.865.38.475.536 1.072.455 1.667l-.448 3.278a6.373 6.373 0 012.64 1.01c.379-.073.764-.12 1.171-.12l3.226-.025-.007-28.407a.331.331 0 00-.33-.322h-3.977c-.09.135-.187.27-.304.39zm-5.437 36.12c.021.24 0 .486-.126.677a1.192 1.192 0 01-.424.367.941.941 0 01-.33.092c-.044.007-.085.035-.129.035l-.104-.008-.713-.041-1.29-.078-1.93-.114h-.022a.358.358 0 00-.344.325.344.344 0 00.324.36l.267.014 2.432.141 1.205.07 2.607.149c.078.007.148-.007.226-.007a4.762 4.762 0 002.812-.875c.323-.233.606-.5.859-.789a4.64 4.64 0 00.713-1.116c.162-.345.267-.697.33-1.064.029-.155.07-.303.077-.466.085-1.969-1.091-4.078-3.227-4.692-.168-.049-.36-.063-.549-.092-.135-.02-.261-.063-.41-.07l-.576-.015-1.016-.056-1.938-.105-1.014-.058-.811-.041-.204-.015-1.62-.085-1.501-.077a.453.453 0 00-.255.085.304.304 0 00-.113.233.374.374 0 00.092.254.336.336 0 00.232.112l.17.007 2.973.17.657.035.352.021 1.013.056.1.007c.557.037.986.508.958 1.073a1.176 1.176 0 01-.338.755 1.227 1.227 0 01-.74.31h-.043l-1.014-.055-1-.05-4.25-.248a.273.273 0 00-.198.05c-.014.015-.041.028-.049.035a.309.309 0 00-.113.24.336.336 0 00.318.36l.232.014 4.038.233 2.03.114h.02c.17.007.311.07.445.148a1 1 0 01.506.923c-.012.269-.14.572-.337.755-.191.17-.444.283-.698.296-.014 0-.027.007-.042.007l-.528-.027-.444-.029-1.016-.056-2.662-.155-.621-.036a.294.294 0 00-.289.135.367.367 0 00-.077.19c-.015.19.14.36.323.366l1.086.064 2.219.128.416.02.6.036 1.013.056.529.029c.043 0 .07.027.114.041a.989.989 0 01.746.551c.042.092.042.204.056.304.008.034.015.056.015.077zM26.809 87.42l.063-.455 1.062-7.506-1.976-.053c-.078.005-.105.033-.148.053-.027.014-.084.02-.098.033a.304.304 0 00-.107.22l-.34 10.998c-.006.172.142.326.333.333l1.856.053 12.25.341c-.064-.047-.12-.1-.17-.153l-10.679-1.341a2.381 2.381 0 01-1.713-1.068 2.084 2.084 0 01-.333-1.455zm10.69.235a2.53 2.53 0 01.434-1.283c-.046-.029-.092-.044-.133-.078l-7.372-6.523-.414-.365-.048.35-1.088 8.765c-.025.187.101.367.275.387l9.255 1.326c.025-.143.039-.293.092-.429a2.5 2.5 0 01-1-2.15zm1.676-4.449a2.263 2.263 0 011.631-.566l.95.053.696-.312 1.29-.58 1.953-.88 2.402-1.078.026-.18a.325.325 0 00-.06-.233.355.355 0 00-.214-.126l-3.123-.413-3.459-.46-1.264-.165-2.167-.287-4.32-.572L30.46 77a.377.377 0 00-.235.06.304.304 0 00-.12.213l-.027.179.83.68 2.433 1.984 3.526 2.89 1.484 1.212.221-.1a2.083 2.083 0 01.603-.912zm7.747-.806l2.25.066.156-.653-2.406.587zm-9.953-26.377l.02.02c.46.414.724.959.784 1.527.007.015.021.027.021.049l1.311 4.944 1.311-4.944c.007-.022.019-.034.026-.049.06-.56.325-1.113.783-1.52l.021-.021.5-.441 2.297-2.017 1.676-1.47v-2.744c-1.872.79-4.04 1.289-6.567 1.421-2.567-.132-4.77-.638-6.668-1.45v2.766l1.676 1.47 2.297 2.017.512.442zm5.275.288c-.124.103-.171.258-.103.34l2.692 3.43c.047.061.129.075.178.075a.466.466 0 00.333-.136l6.297-6.595c.007-.007.007-.014.007-.02.089-.103.117-.232.048-.3l-.62-.682-1.656-1.822c-.04-.049-.11-.07-.19-.07a.419.419 0 00-.281.11l-6.705 5.67zM30.682 45.416c.304.22.635.41.968.602 2.073 1.208 4.574 1.949 7.642 2.107 3.074-.158 5.576-.906 7.642-2.133.304-.18.608-.357.884-.557 2.917-2.07 4.817-5.273 6.027-9.382.138-.474.276-.953.4-1.454.326-1.324.588-2.73.794-4.22.084-.582.146-1.186.216-1.796.027-.28.062-.556.089-.837l-.856-1.173c-5.743-3.066-8.562-7.95-9.813-10.932-3.255 3.689-8.507 3.627-8.783 3.613a1.253 1.253 0 01-1.223-1.385c-3.095 1.208-6.032 1.371-6.253 1.385a1.225 1.225 0 01-1.086-.521 14.068 14.068 0 01-3.489 1.097c-.408.989-.746 2.188-.982 3.637.076 1.782.2 3.49.38 5.116.07.61.132 1.214.215 1.797.207 1.482.47 2.888.794 4.212.126.5.264.98.402 1.454 1.2 4.102 3.11 7.298 6.032 9.37zm-5.326 7.988c.007.007.007.014.007.021l.021.02 6.274 6.575a.449.449 0 00.333.136c.047 0 .13-.014.178-.075l2.69-3.43c.069-.082.02-.237-.102-.34l-6.717-5.67a.44.44 0 00-.286-.11c-.08 0-.15.028-.19.07l-1.655 1.822-.403.443-.218.239c-.047.075-.019.197.068.3zm16.753 51.268l-.075-.566a3.604 3.604 0 01-1.152-2.212l-.31-2.418-.535-4.21c-.007-.034 0-.061 0-.096l-12.492-.367-2.12-.062a2.323 2.323 0 01-2.236-2.39l.329-11.39a2.342 2.342 0 01.72-1.624 2.316 2.316 0 011.187-.594c.151-.027.31-.04.467-.04l2.12.061.144-1.065c.082-.614.397-1.16.885-1.54a2.26 2.26 0 011.707-.457l1.591.215-12.128-20.573h-.63a.335.335 0 00-.331.33v48.653c0 .18.151.332.33.332l22.53.013zm2.505-3.622l7.806-.935-.007-.04a2.033 2.033 0 01.462-1.587c.378-.456.923-.75 1.534-.82l1.121-.135a2.421 2.421 0 011.527.333c.483.282.84.724.992 1.262.026.09.054.174.068.269l.007.046.914-.11 6.893-.827c.29-.031.53-.152.75-.3.469-.322.758-.846.682-1.422l-.118-.866-.873.006-7.327.051-1.98.013-3.123.02h-.05a6.597 6.597 0 01-3.24-.86 6.99 6.99 0 01-1.83.252c-.123 0-.246-.007-.376-.014l-2.36-.128-3.612-.191-.365-.02.07.487.584 4.202c.054.41.281.77.632 1.019.125.09.27.14.414.193.253.082.523.141.805.102zm13.136.745l-.293-1.658-.008-.034c-.023-.14-.194-.244-.39-.244h-.05l-1.321.122a.441.441 0 00-.26.104.218.218 0 00-.081.203l.008.034.291 1.658.008.04c.017.098.098.156.146.186.05.024.148.07.285.058l1.324-.122c.21-.018.366-.156.333-.313l.008-.034zm10.814 5.917l-.904-6.65c-.244.086-.5.152-.771.185l-7.229.88-.668.079.007.045c.168 1.21-.744 2.313-2.017 2.47l-1.135.139a2.39 2.39 0 01-1.647-.4c-.029-.02-.057-.027-.084-.04a2.165 2.165 0 01-.723-.907 2.08 2.08 0 01-.167-.565l-.007-.046-4.967.606-2.937.353c-.16.02-.319.027-.479.027-.105 0-.215-.014-.32-.027l.076.585.132.947.696 5.122c.056.42.285.789.64 1.046a1.72 1.72 0 001.232.315l19.826-2.41c.917-.1 1.564-.895 1.446-1.754zM38.5 44.516c2.328 0 4.813-.655 4.813-2.478 0-.628-.437-1.132-.984-1.132-.437 0-.813.33-.935.785-.327.228-1.365.56-2.894.56-1.529 0-2.56-.338-2.894-.56-.13-.455-.5-.785-.936-.785-.546 0-.983.504-.983 1.132 0 1.823 2.485 2.478 4.813 2.478z"/></svg>