<?xml version="1.0" encoding="UTF-8"?>
<svg width="29px" height="35px" viewBox="0 0 29 35" version="1.1" xmlns="http://www.w3.org/2000/svg" xmlns:xlink="http://www.w3.org/1999/xlink">
    <!-- Generator: Sketch 52.6 (67491) - http://www.bohemiancoding.com/sketch -->
    <title>np_flag_3113089_000000</title>
    <desc>Created with Sketch.</desc>
    <g id="Page-1" stroke="none" stroke-width="1" fill="none" fill-rule="evenodd">
        <g id="book2-home" transform="translate(-351.000000, -1326.000000)" fill="#3586F8" fill-rule="nonzero" stroke="#3586F8" stroke-width="0.2">
            <g id="Group-13" transform="translate(348.000000, 1102.000000)">
                <g id="Group-Copy-2">
                    <g id="np_flag_3113089_000000" transform="translate(3.000000, 225.000000)">
                        <path d="M28.2579625,4.3428 C23.6814,1.47821667 19.1954625,2.87041333 14.8113875,4.25113333 C10.778575,5.52302667 6.9552875,6.71469333 3.171875,4.57196667 L3.171875,1.74749667 L3.45507813,1.74749667 C3.92379063,1.74749667 4.30470563,1.36220333 4.30470563,0.888103333 C4.30470563,0.414003333 3.92379063,0.02871 3.45507813,0.02871 L1.18945313,0.02871 C0.720740625,0.02871 0.339825625,0.414003333 0.339825625,0.888103333 C0.339825625,1.36220333 0.720740625,1.74749667 1.18945313,1.74749667 L1.47265625,1.74749667 L1.47265625,32.1118967 C1.47265625,32.5859967 1.85357125,32.97129 2.32228375,32.97129 C2.79099625,32.97129 3.17191125,32.5859967 3.17191125,32.1118967 L3.17191125,21.3982633 C4.5936,22.0542667 6.13988,22.38797 7.70316125,22.37796 C10.2803188,22.37796 12.8292738,21.5701567 15.3268988,20.7852333 C19.5014488,19.4675067 23.4490738,18.2185667 27.3687863,20.6935667 C27.6307505,20.8539833 27.956435,20.8611443 28.2240688,20.7107542 C28.4917025,20.560364 28.657365,20.2753375 28.6601925,19.9659808 L28.6601925,5.0701475 C28.6601925,4.7736645 28.5086784,4.49723083 28.258035,4.34253417 L28.2579625,4.3428 Z M26.9609013,18.5284 C22.8316638,16.61484 18.7593388,17.8981733 14.8113513,19.14715 C10.8633638,20.3961267 6.95525125,21.62215 3.17183875,19.4737107 L3.17183875,6.508744 C7.30107625,8.41654733 11.3734013,7.133214 15.3213888,5.889994 C19.2693763,4.646774 23.1716888,3.409274 26.9609013,5.55770233 L26.9609013,18.5284 Z" id="Shape"></path>
                    </g>
                </g>
            </g>
        </g>
    </g>
</svg>