<svg xmlns="http://www.w3.org/2000/svg" width="111" height="30" viewBox="0 0 111 30">
    <g fill="none" fill-rule="nonzero">
        <path fill="#F6891E" d="M51.5 24.224C46.684 27.78 39.7 29.67 33.69 29.67c-8.427 0-16.016-3.115-21.76-8.302-.45-.405-.05-.963.494-.646 6.195 3.605 13.858 5.776 21.77 5.776 5.34 0 11.208-1.108 16.608-3.399.815-.344 1.497.537.7 1.126"/>
        <path fill="#F6891E" d="M53.505 21.936c-.616-.789-4.072-.374-5.626-.188-.47.056-.542-.354-.118-.653 2.758-1.935 7.274-1.375 7.8-.727.53.652-.14 5.182-2.722 7.344-.399.333-.777.156-.6-.284.582-1.452 1.882-4.703 1.266-5.492"/>
        <path fill="#231F20" d="M47.99 7.416v-1.88c0-.289.217-.479.476-.479h8.433c.272 0 .487.195.487.476v1.613c-.002.27-.23.623-.634 1.185l-4.369 6.236c1.62-.038 3.336.204 4.81 1.033.332.186.422.465.447.734v2.008c0 .279-.301.598-.62.43-2.597-1.359-6.041-1.508-8.91.019-.295.154-.6-.161-.6-.438v-1.908c0-.305.004-.829.312-1.293l5.062-7.263h-4.407a.47.47 0 0 1-.487-.473M17.226 19.168H14.66a.484.484 0 0 1-.46-.432l.002-13.17c0-.263.222-.473.494-.473h2.39c.25.011.452.201.467.442v1.717h.048c.623-1.66 1.797-2.438 3.376-2.438 1.607 0 2.613.777 3.331 2.438.62-1.66 2.035-2.438 3.544-2.438 1.079 0 2.252.444 2.97 1.441.814 1.108.646 2.717.646 4.129l-.002 8.31a.484.484 0 0 1-.494.474H28.41a.48.48 0 0 1-.46-.47l-.002-6.984c0-.553.048-1.94-.07-2.466-.193-.886-.768-1.135-1.51-1.135-.622 0-1.27.415-1.533 1.081-.263.664-.24 1.772-.24 2.52v6.98c0 .264-.22.474-.494.474h-2.563a.48.48 0 0 1-.46-.47l-.002-6.984c0-1.469.238-3.63-1.582-3.63-1.844 0-1.772 2.107-1.772 3.63l-.002 6.98c0 .264-.22.474-.494.474M64.67 7.503c-1.892 0-2.012 2.576-2.012 4.185 0 1.606-.022 5.041 1.987 5.041 1.99 0 2.085-2.769 2.085-4.461 0-1.108-.047-2.438-.383-3.49-.288-.915-.863-1.275-1.677-1.275m-.025-2.688c3.81 0 5.87 3.27 5.87 7.425 0 4.02-2.276 7.206-5.87 7.206-3.736 0-5.77-3.27-5.77-7.344 0-4.101 2.059-7.287 5.77-7.287M75.453 19.168h-2.556a.48.48 0 0 1-.46-.47l-.005-13.175a.483.483 0 0 1 .492-.43h2.381a.486.486 0 0 1 .456.367v2.014h.047c.719-1.801 1.725-2.66 3.497-2.66 1.15 0 2.275.417 2.995 1.552.668 1.054.668 2.828.668 4.101v8.287a.485.485 0 0 1-.489.414h-2.574a.485.485 0 0 1-.455-.414v-7.15c0-1.44.167-3.547-1.607-3.547-.62 0-1.196.416-1.484 1.053-.358.802-.406 1.607-.406 2.495v7.09a.493.493 0 0 1-.5.473M10.218 19.136a.531.531 0 0 1-.607.059c-.852-.707-1.004-1.036-1.47-1.709-1.407 1.434-2.404 1.865-4.229 1.865-2.161 0-3.84-1.332-3.84-4 0-2.082 1.128-3.498 2.735-4.193 1.393-.61 3.337-.721 4.824-.889v-.333c0-.612.05-1.332-.31-1.86-.313-.474-.914-.666-1.442-.666-.979 0-1.849.5-2.062 1.54-.045.232-.213.46-.446.472l-2.486-.27c-.21-.047-.444-.215-.383-.537C1.073 5.6 3.8 4.688 6.24 4.688c1.248 0 2.88.334 3.865 1.276 1.246 1.167 1.126 2.721 1.126 4.416v3.997c0 1.204.501 1.732.97 2.38.163.233.2.51-.009.68-.523.439-1.455 1.248-1.967 1.705l-.007-.006zM7.631 12.88v-.555c-1.856 0-3.816.396-3.816 2.583 0 1.11.576 1.86 1.561 1.86.72 0 1.369-.444 1.777-1.167.503-.888.478-1.722.478-2.721zM43.853 19.136a.531.531 0 0 1-.607.059c-.852-.707-1.004-1.036-1.47-1.709-1.408 1.434-2.405 1.865-4.229 1.865-2.161 0-3.84-1.332-3.84-4 0-2.082 1.128-3.498 2.735-4.193 1.393-.61 3.337-.721 4.824-.889v-.333c0-.612.05-1.332-.31-1.86-.314-.474-.914-.666-1.442-.666-.979 0-1.849.5-2.062 1.54-.045.232-.213.46-.446.472l-2.486-.27c-.21-.047-.444-.215-.383-.537.571-3.016 3.295-3.927 5.737-3.927 1.249 0 2.88.334 3.864 1.276 1.248 1.167 1.128 2.721 1.128 4.416v3.997c0 1.204.5 1.732.97 2.38.163.233.2.51-.01.68-.523.439-1.454 1.248-1.966 1.705l-.007-.006zm-2.587-6.256v-.555c-1.856 0-3.816.396-3.816 2.583 0 1.11.575 1.86 1.561 1.86.72 0 1.366-.444 1.776-1.167.504-.888.479-1.722.479-2.721zM84.578 18.124c0-.662.566-1.2 1.262-1.2.698 0 1.264.538 1.264 1.2 0 .661-.566 1.198-1.264 1.198-.696 0-1.262-.537-1.262-1.198m17.567-7.455h6.458c.023-2.296-1.06-4.242-3.14-4.312-1.974.072-3.248 2.125-3.318 4.312m-6.052 2.393v-2.253c0-.974-.118-1.975-.62-2.812-.576-.965-1.598-1.543-2.611-1.583-1.008.047-1.854.784-2.363 1.778-.551 1.113-.719 2.393-.719 3.673 0 2.275.512 5.688 3.02 5.787 1.036-.045 1.974-.727 2.577-1.695.573-.92.716-1.837.716-2.895m9.367-8.375c3.784 0 5.404 3.421 5.425 7.187.002.216-.222.406-.435.406l-8.4.002c0 1.115.048 2.144.503 3.202.557 1.298 1.772 2.096 3.005 2.141 1.395-.048 2.442-.931 3.002-2.336a.535.535 0 0 1 .55-.304l1.127.236c.238.057.392.281.33.487-.8 2.352-2.678 3.755-5.161 3.755-3.823 0-5.683-3.395-5.683-7.346 0-3.898 1.99-7.43 5.737-7.43m-7.72 14.497h-1.035c-.22.002-.442-.193-.444-.406v-1.726c-.775 1.547-1.935 2.41-3.74 2.41-1.787 0-2.938-.89-3.822-2.392-.838-1.448-1.148-3.229-1.148-4.953 0-3.535 1.411-7.43 5.132-7.43 1.613 0 2.583.725 3.41 1.937V.502c.002-.215.224-.408.442-.408h1.203c.22 0 .442.193.444.408V18.78c-.002.213-.22.403-.442.403"/>
    </g>
</svg>
