<svg xmlns="http://www.w3.org/2000/svg" width="131" height="29"><g fill="none"><path fill="#231F20" d="M88.577 4.677c-1.63 0-2.865.742-3.792 2.225-.784 1.298-1.155 2.885-1.155 4.822 0 1.917.371 3.505 1.155 4.76.885 1.464 2.143 2.206 3.75 2.206h.185c1.175 0 2.143-.434 2.947-1.278.783-.866 1.34-1.98 1.567-3.36 0-.102-.043-.185-.125-.267-.103-.083-.185-.103-.33-.145h-1.03c-.247 0-.392.124-.452.351-.372 1.875-1.3 2.844-2.7 2.927-1.051-.042-1.835-.66-2.329-1.917-.391-.886-.598-2.06-.598-3.4 0-1.36.227-2.473.66-3.38.515-1.154 1.299-1.75 2.37-1.813.7.02 1.298.33 1.751.866.433.494.701 1.133.846 1.937.061.247.185.412.433.474l1.07.02c.29-.061.413-.185.413-.432-.185-1.402-.68-2.514-1.483-3.318-.804-.845-1.793-1.278-2.968-1.278h-.185zm20.978.31a.419.419 0 00-.29.102c-.081.082-.143.185-.143.268v7.81c0 1.793.329 3.133.928 3.998.7 1.01 1.73 1.526 3.07 1.526 1.545 0 2.7-.846 3.482-2.515v1.855c0 .082.062.165.144.268.08.07.184.106.29.103h.988a.463.463 0 00.31-.103l.103-.268V5.357l-.123-.247a.366.366 0 00-.29-.124h-1.153a.419.419 0 00-.29.103c-.082.082-.144.164-.144.268v6.78c0 1.402-.288 2.514-.845 3.38a3.336 3.336 0 01-1.113.968c-.412.247-.824.392-1.175.392-.37 0-.722-.125-1.051-.35a2.635 2.635 0 01-.722-.928c-.267-.537-.412-1.319-.412-2.432v-7.81l-.123-.268a.404.404 0 00-.268-.103h-1.173zm12.9-4.74h-1.173a.355.355 0 00-.27.143c-.102.041-.142.165-.142.247V18.03c0 .082.04.165.143.269a.372.372 0 00.269.102h1.173c.105 0 .207-.02.29-.102a.362.362 0 00.123-.27V14.28l2.37-3.174 3.09 6.904c.125.267.31.391.579.391h1.154c.144 0 .227-.02.31-.124.081-.103.102-.226.04-.33l-3.854-8.221 3.237-4.266c.082-.082.082-.185.02-.289-.043-.103-.125-.164-.228-.164h-1.195c-.247 0-.454.103-.619.35l-4.904 6.265V.637a.447.447 0 00-.123-.288c-.103-.062-.185-.103-.29-.103zM106.793 16.28c-.35-.022-.617.082-.844.329a.997.997 0 00-.372.804c0 .288.124.556.372.803.227.228.494.33.844.33.331 0 .639-.103.866-.33.227-.247.33-.515.35-.803-.02-.33-.123-.6-.35-.804a1.048 1.048 0 00-.866-.33zm-24.709 0c-.329-.022-.598.082-.845.329-.226.205-.37.474-.35.804-.02.288.124.556.35.803.247.228.515.33.845.33.35 0 .62-.103.866-.33.248-.206.35-.515.37-.803-.02-.33-.122-.6-.37-.804a1.049 1.049 0 00-.866-.33zm-58.61-9.213c-.638-1.545-1.73-2.328-3.173-2.328-1.545 0-2.637.783-3.194 2.328h-.062V5.44c-.02-.268-.185-.412-.454-.432h-2.266c-.33 0-.495.164-.495.453v12.55c.042.247.166.371.474.391l2.432-.02c.309 0 .453-.124.475-.433v-6.615c-.021-1.113.02-1.875.164-2.267.247-.823.722-1.195 1.505-1.195.762 0 1.257.37 1.421 1.195.062.289.103 1.051.103 2.267v6.615c-.041.268.124.433.433.453l2.452-.02c.33 0 .453-.124.453-.433v-6.615c0-1.257.062-2.06.247-2.41a1.37 1.37 0 01.598-.763c.247-.186.535-.289.865-.268.804 0 1.278.35 1.402 1.092.082.186.082.969.082 2.35v6.614c0 .27.165.434.453.454l2.432-.02c.33 0 .474-.124.474-.434V7.974c-.061-.783-.289-1.402-.598-1.855-.68-.927-1.607-1.38-2.844-1.38-.763 0-1.402.184-2 .597-.616.371-1.11.969-1.378 1.731zm23.02-2.08c-.33 0-.454.123-.454.452v1.773c0 .308.165.473.475.473h4.203l-4.842 6.883c-.185.309-.289.7-.289 1.257v1.793c0 .144.042.289.185.351.124.123.247.143.371.06 1.319-.699 2.782-1.05 4.348-1.029 1.526.041 2.885.35 4.163 1.03l.413-.06c.123-.063.185-.187.185-.352v-1.916c-.062-.31-.185-.558-.433-.7-1.216-.682-2.76-1.01-4.595-.949l4.163-5.935c.412-.577.618-.949.618-1.175V5.438c0-.329-.165-.453-.453-.453h-8.058v.001zm32.231 1.236c-.619-1.01-1.565-1.484-2.865-1.484-.824 0-1.503.206-2.04.639-.494.412-.926 1.01-1.278 1.896h-.04V5.357a.49.49 0 00-.434-.35H69.78c-.29 0-.454.123-.454.412v12.529c-.02.268.144.433.434.453l2.431-.02c.31 0 .452-.124.494-.433V11.21c0-1.01.123-1.794.392-2.37.288-.68.742-.99 1.423-.99.72-.041 1.153.371 1.358 1.155.083.35.145 1.072.165 2.205v6.82c0 .247.167.351.414.371l2.451-.02c.269 0 .434-.104.475-.351v-7.892c0-1.938-.227-3.236-.639-3.915z"/><path fill="#F6891E" d="M11.564 19.927c-.124.185-.083.371.144.556a30.922 30.922 0 009.397 5.853c3.586 1.401 7.337 2.102 11.314 2.102a33.8 33.8 0 008.924-1.32c3.132-.946 5.832-2.246 8.037-3.894.35-.267.474-.537.247-.844-.185-.331-.515-.372-.907-.207a40.149 40.149 0 01-15.806 3.215c-3.73 0-7.399-.494-11.005-1.463-3.503-.948-6.76-2.266-9.747-4.019-.248-.164-.455-.144-.598.02z"/><path fill="#F6891E" d="M53.253 19.557c-.144-.167-.453-.31-1.01-.434l-1.875-.165c-1.854.02-3.359.454-4.554 1.257-.185.165-.289.33-.227.475 0 .123.124.185.35.143 3.215-.35 4.987-.288 5.38.206.391.515-.042 2.266-1.217 5.234-.123.207-.061.35.063.413.143.042.308.02.494-.145 1.113-.926 1.917-2.266 2.432-4.019.185-.699.289-1.338.33-1.917 0-.554-.041-.905-.166-1.048z"/><path fill="#231F20" d="M5.772 10.159l-.494.061c-.948.124-1.711.33-2.267.557-.825.37-1.443.865-1.896 1.525-.495.7-.742 1.504-.742 2.453 0 1.216.35 2.164 1.072 2.863.638.66 1.525.948 2.617.948.66 0 1.216-.082 1.71-.227a2.35 2.35 0 00.413-.144c.577-.247 1.195-.722 1.876-1.401l.598.804.824.846c.227.102.412.082.577-.063l1.876-1.629c.206-.142.206-.39 0-.637l-.618-.948a2.792 2.792 0 01-.289-1.298v-3.812c0-1.155-.062-1.938-.103-2.288-.123-.783-.474-1.443-.989-1.917-.824-.824-2.06-1.216-3.668-1.216h-.495c-1.133.061-2.102.33-2.905.804-1.134.639-1.814 1.628-2.062 2.947-.082.268.042.432.35.515l2.35.227c.247 0 .391-.145.433-.453.123-.454.35-.825.741-1.072.289-.227.66-.35 1.093-.37.041-.022.082-.022.123-.022.639 0 1.113.227 1.402.66.144.185.247.474.268.865l.02 1.216-1.815.206zm0 5.934c-.103.021-.226.021-.33.021-.474 0-.844-.166-1.092-.495-.268-.288-.413-.72-.413-1.278 0-1.133.618-1.875 1.834-2.205.495-.144 1.114-.205 1.814-.205v.494c-.021.66-.042 1.113-.042 1.36-.061.453-.226.845-.433 1.216-.348.64-.781.99-1.338 1.092zm32.063-5.934l-.494.061c-.948.124-1.71.33-2.267.557-.825.37-1.443.865-1.896 1.525-.495.7-.743 1.504-.743 2.453 0 1.216.351 2.164 1.072 2.863.639.66 1.526.948 2.617.948.66 0 1.216-.082 1.71-.227a2.35 2.35 0 00.413-.144c.576-.247 1.195-.722 1.875-1.401l.598.804.825.846c.226.102.412.082.576-.063l1.876-1.629c.206-.142.206-.39 0-.637l-.618-.948a2.792 2.792 0 01-.289-1.298v-3.812c0-1.155-.061-1.938-.103-2.288-.123-.783-.474-1.443-.99-1.917-.823-.824-2.06-1.216-3.667-1.216h-.495c-1.133.061-2.102.33-2.905.804-1.133.639-1.814 1.628-2.06 2.947-.083.268.04.432.35.515l2.35.227c.246 0 .39-.145.432-.453.124-.454.35-.825.742-1.072.288-.227.66-.35 1.092-.37.042-.022.082-.022.124-.022.638 0 1.112.227 1.4.66.145.185.248.474.269.865l.02 1.216-1.814.206zm0 5.934c-.103.021-.226.021-.329.021-.474 0-.845-.166-1.092-.495-.268-.288-.413-.72-.413-1.278 0-1.133.618-1.875 1.834-2.205.495-.144 1.113-.205 1.814-.205v.494c-.02.66-.041 1.113-.041 1.36-.062.453-.227.845-.433 1.216-.35.64-.783.99-1.34 1.092zM61.93 4.738c-1.71 0-3.092.68-4.08 2.02-.949 1.236-1.443 2.885-1.443 4.925 0 2.02.494 3.648 1.442 4.947.97 1.38 2.35 2.06 4.08 2.06h.042c1.65-.02 2.989-.7 4.02-1.998.988-1.298 1.503-2.886 1.503-4.844 0-2.08-.495-3.73-1.421-5.028-1.01-1.38-2.391-2.081-4.102-2.081h-.041zm.04 11.314h-.041c-.845 0-1.402-.576-1.69-1.772-.123-.66-.205-1.629-.205-2.989 0-1.092.082-1.958.267-2.555.29-.949.846-1.443 1.65-1.443h.02c.762.02 1.298.454 1.567 1.258.247.783.35 1.875.35 3.297 0 1.174-.082 2.102-.268 2.699-.31 1.01-.866 1.505-1.65 1.505zM99.704 4.677c-1.67.02-2.988.68-3.916 2.081-.946 1.278-1.38 2.885-1.38 4.863 0 1.937.392 3.545 1.216 4.843.908 1.483 2.186 2.226 3.834 2.226h.247c1.628-.042 2.947-.763 3.916-2.143.907-1.298 1.38-2.927 1.401-4.905-.02-1.916-.432-3.503-1.278-4.801-.947-1.422-2.205-2.164-3.832-2.164h-.208zm0 12.302a2.405 2.405 0 01-1.4-.494 2.975 2.975 0 01-1.073-1.236c-.432-.908-.66-2.102-.66-3.628 0-1.38.185-2.514.577-3.338.247-.598.578-1.031 1.03-1.381.475-.33.949-.516 1.526-.516.454 0 .907.124 1.38.433.392.268.742.68 1.01 1.134.495.886.742 2.102.742 3.668 0 1.443-.185 2.577-.576 3.38-.557 1.279-1.423 1.917-2.556 1.978z"/></g></svg>