<svg width="120" height="30" xmlns="http://www.w3.org/2000/svg"><g fill="none" fill-rule="evenodd"><path fill="#FFF" d="M0 0h120v29.244H0z"/><path d="M48.35 23.54c-4.512 3.397-11.052 5.21-16.683 5.21-7.896 0-15.004-2.983-20.382-7.944-.422-.39-.044-.922.463-.618 5.804 3.449 12.98 5.523 20.392 5.523 4.999 0 10.498-1.056 15.555-3.248.764-.331 1.402.51.655 1.077" fill="#F90"/><path d="M50.026 21.316c-.572-.754-3.794-.356-5.24-.18-.44.055-.508-.339-.111-.623 2.566-1.857 6.777-1.32 7.268-.698.491.626-.127 4.967-2.539 7.039-.37.318-.723.149-.558-.273.541-1.39 1.755-4.507 1.18-5.265" fill="#F90"/><path d="M45.285 7.182V5.407c0-.268.2-.448.442-.448h7.822c.25 0 .452.183.452.448v1.52c-.004.255-.215.588-.59 1.115l-4.053 5.879c1.506-.038 3.096.19 4.462.972.308.177.391.435.415.69v1.894c0 .259-.281.561-.576.405-2.406-1.282-5.603-1.421-8.264.013-.27.15-.555-.15-.555-.408V15.69c0-.29.003-.782.288-1.22l4.696-6.841h-4.087a.436.436 0 01-.452-.446M16.078 18.8h-2.41a.46.46 0 01-.43-.42V5.681c0-.254.207-.455.465-.455h2.246a.46.46 0 01.437.424v1.66h.045c.586-1.604 1.687-2.352 3.171-2.352 1.508 0 2.45.748 3.128 2.352.583-1.604 1.908-2.352 3.328-2.352 1.01 0 2.114.428 2.788 1.388.763 1.068.607 2.62.607 3.98l-.003 8.014a.46.46 0 01-.465.46H26.58a.465.465 0 01-.433-.46v-6.73c0-.535.047-1.871-.068-2.38-.18-.852-.718-1.092-1.416-1.092-.583 0-1.193.4-1.44 1.04-.248.64-.224 1.712-.224 2.433v6.73a.46.46 0 01-.465.458h-2.405a.462.462 0 01-.434-.459l-.004-6.73c0-1.416.227-3.5-1.484-3.5-1.731 0-1.664 2.032-1.664 3.5v6.73a.46.46 0 01-.464.46M61.023 4.959c3.631 0 5.596 3.093 5.596 7.026 0 3.8-2.172 6.815-5.596 6.815-3.566 0-5.507-3.093-5.507-6.948 0-3.878 1.965-6.893 5.507-6.893m.02 2.543c-1.803 0-1.917 2.438-1.917 3.958 0 1.522-.024 4.773 1.897 4.773 1.896 0 1.986-2.622 1.986-4.22 0-1.052-.045-2.308-.365-3.305-.275-.868-.823-1.206-1.6-1.206M70.715 18.8h-2.38a.463.463 0 01-.431-.459l-.004-12.7a.458.458 0 01.461-.414h2.216c.208.01.38.156.427.355v1.941h.044c.669-1.736 1.607-2.564 3.258-2.564 1.073 0 2.118.4 2.791 1.496.625 1.016.625 2.724.625 3.953V18.4a.464.464 0 01-.46.4h-2.398a.46.46 0 01-.423-.4v-6.896c0-1.389.154-3.42-1.497-3.42-.582 0-1.116.403-1.382 1.015-.336.776-.38 1.549-.38 2.405v6.837a.467.467 0 01-.467.46M79.43 17.285c0-.599.575-1.08 1.282-1.08.706 0 1.28.481 1.28 1.08 0 .595-.574 1.083-1.28 1.083-.707 0-1.281-.488-1.281-1.083M105.068 18.8a.456.456 0 01-.442-.456V5.72a.448.448 0 01.425-.415h.874c.241 0 .435.18.455.415v1.84c.623-1.46 1.781-2.601 3.244-2.601h.177c1.553 0 2.688 1.183 3.11 2.902.659-1.698 1.897-2.902 3.53-2.902h.182c1.154 0 2.266.768 2.841 1.937.556 1.117.536 2.605.536 3.854l-.003 7.594a.455.455 0 01-.426.456h-1.044a.462.462 0 01-.442-.394V10.75c0-.903.044-1.861-.311-2.685-.361-.84-1.054-1.366-1.797-1.404-.83.041-1.594.667-2.089 1.512-.643 1.09-.62 2.072-.62 3.345v6.895a.463.463 0 01-.424.387h-1.038a.459.459 0 01-.445-.456l-.007-8.1c0-.743-.043-1.618-.375-2.286-.385-.761-1.074-1.26-1.797-1.297-.75.045-1.506.636-1.955 1.325-.579.879-.69 1.965-.69 3.082v7.276a.46.46 0 01-.428.456h-1.04M97.53 18.8c-3.357 0-4.861-3.493-4.861-6.987 0-3.673 1.766-6.854 5.146-6.854h.18c3.286 0 4.923 3.388 4.923 6.882 0 3.7-1.813 6.96-5.213 6.96h-.176m.246-1.695c1.105-.037 1.976-.736 2.492-1.9.462-1.047.552-2.245.552-3.393 0-1.249-.133-2.553-.708-3.622-.516-.934-1.4-1.528-2.339-1.562-1.045.037-1.98.76-2.448 1.874-.423.964-.553 2.244-.553 3.31 0 1.199.153 2.584.64 3.626.471.988 1.38 1.63 2.364 1.667M86.856 17.052c1.521-.048 2.32-1.28 2.65-2.876.067-.2.218-.353.44-.353l1.004-.003c.238.01.457.193.437.417-.464 2.72-2.086 4.563-4.397 4.563h-.181c-3.365 0-4.816-3.415-4.816-6.881 0-3.44 1.47-6.96 4.836-6.96h.181c2.338 0 4.004 1.82 4.367 4.539 0 .204-.189.38-.41.404l-1.051-.014c-.222-.03-.366-.22-.4-.434-.252-1.518-1.115-2.726-2.553-2.774-2.287.075-2.938 2.92-2.938 5.11 0 2.108.544 5.187 2.831 5.262M38.71 12.692c0 .944.024 1.73-.451 2.569-.384.681-.995 1.1-1.67 1.1-.926 0-1.469-.708-1.469-1.754 0-2.065 1.842-2.44 3.59-2.44v.525m2.433 5.904a.502.502 0 01-.57.058c-.801-.668-.947-.978-1.385-1.615-1.323 1.356-2.263 1.761-3.976 1.761-2.033 0-3.61-1.257-3.61-3.774 0-1.966 1.058-3.305 2.571-3.959 1.31-.58 3.139-.681 4.537-.841v-.314c0-.576.044-1.257-.295-1.754-.292-.447-.855-.63-1.354-.63-.92 0-1.737.473-1.938 1.454-.04.218-.2.433-.42.443l-2.338-.252c-.197-.044-.417-.205-.36-.508.536-2.848 3.101-3.706 5.395-3.706 1.174 0 2.708.313 3.634 1.206 1.174 1.1 1.062 2.568 1.062 4.166v3.775c0 1.134.468 1.632.91 2.245.152.218.186.48-.01.644a102.49 102.49 0 00-1.85 1.608l-.003-.007M7.107 12.692c0 .944.023 1.73-.452 2.569-.383.681-.99 1.1-1.668 1.1-.927 0-1.466-.708-1.466-1.754 0-2.065 1.842-2.44 3.586-2.44v.525m2.432 5.904a.502.502 0 01-.57.058c-.8-.668-.943-.978-1.384-1.615-1.323 1.356-2.26 1.761-3.976 1.761C1.581 18.8 0 17.543 0 15.026c0-1.966 1.062-3.305 2.571-3.959 1.31-.58 3.138-.681 4.536-.841v-.314c0-.576.044-1.257-.292-1.754-.295-.447-.858-.63-1.354-.63-.919 0-1.74.473-1.94 1.454-.04.218-.2.433-.417.443l-2.34-.252c-.198-.044-.415-.205-.36-.508.539-2.848 3.1-3.706 5.393-3.706 1.174 0 2.707.313 3.633 1.206 1.174 1.1 1.062 2.568 1.062 4.166v3.775c0 1.134.468 1.632.91 2.245.155.218.19.48-.008.644-.492.412-1.367 1.179-1.848 1.608l-.007-.007" fill="#221F1F"/></g></svg>