<svg xmlns="http://www.w3.org/2000/svg" width="62" height="19" viewBox="0 0 62 19">
    <g fill="none" fill-rule="evenodd">
        <path fill="#F90" d="M38.277 14.71c-3.572 2.69-8.75 4.124-13.207 4.124-6.251 0-11.879-2.361-16.136-6.288-.334-.309-.035-.73.367-.49 4.594 2.73 10.275 4.373 16.143 4.373 3.958 0 8.311-.836 12.314-2.571.605-.263 1.11.404.52.852"/>
        <path fill="#F90" d="M39.604 12.95c-.453-.597-3.003-.283-4.148-.143-.35.044-.403-.268-.088-.493 2.031-1.47 5.365-1.046 5.754-.553.389.496-.101 3.932-2.01 5.573-.293.252-.573.118-.443-.217.43-1.1 1.39-3.568.935-4.167"/>
        <path fill="#221F1F" d="M35.85 1.76V.355c0-.212.16-.355.35-.355h6.193c.198 0 .357.145.357.355v1.203c-.002.202-.17.466-.466.883l-3.209 4.654c1.193-.03 2.451.15 3.532.77.244.14.31.344.329.546v1.5c0 .204-.223.444-.456.32-1.905-1.015-4.435-1.125-6.542.01-.215.119-.44-.118-.44-.322V8.495c0-.23.003-.62.228-.967l3.718-5.415h-3.236c-.198 0-.357-.143-.357-.353M12.729 10.958H10.82c-.182-.014-.327-.154-.34-.333V.573c0-.201.163-.36.367-.36h1.779c.185.007.332.153.346.335v1.314h.035C13.472.592 14.343 0 15.518 0c1.194 0 1.94.592 2.477 1.862C18.456.592 19.505 0 20.629 0c.8 0 1.674.339 2.208 1.1.603.845.48 2.073.48 3.15l-.003 6.344c0 .202-.163.364-.367.364h-1.905c-.19-.014-.343-.17-.343-.364V5.267c0-.424.037-1.482-.054-1.884-.142-.675-.569-.865-1.121-.865-.462 0-.945.317-1.14.823-.196.507-.177 1.356-.177 1.926v5.327c0 .202-.164.364-.368.364h-1.905c-.193-.014-.343-.17-.343-.364l-.003-5.327c0-1.121.18-2.771-1.175-2.771-1.37 0-1.317 1.608-1.317 2.77v5.328c0 .202-.164.364-.367.364M48.31 0c2.874 0 4.43 2.449 4.43 5.563 0 3.008-1.72 5.395-4.43 5.395-2.823 0-4.36-2.449-4.36-5.5C43.95 2.386 45.506 0 48.31 0m.016 2.014c-1.428 0-1.518 1.93-1.518 3.133 0 1.205-.019 3.778 1.502 3.778 1.501 0 1.572-2.076 1.572-3.34 0-.833-.035-1.828-.289-2.617-.218-.687-.651-.954-1.267-.954M55.983 10.958h-1.885c-.19-.014-.34-.17-.34-.364L53.753.54c.016-.185.173-.328.365-.328h1.754c.165.008.301.124.339.281V2.03h.034C56.776.656 57.52 0 58.826 0c.849 0 1.677.317 2.21 1.185.494.804.494 2.156.494 3.129v6.327c-.021.177-.178.317-.364.317h-1.898c-.174-.014-.317-.146-.336-.317v-5.46c0-1.099.123-2.707-1.185-2.707-.46 0-.883.32-1.094.804-.266.614-.3 1.226-.3 1.904v5.412c-.003.202-.168.364-.37.364M30.645 6.122c0 .747.02 1.37-.357 2.034-.303.54-.787.871-1.322.871-.733 0-1.163-.561-1.163-1.389 0-1.634 1.459-1.931 2.842-1.931v.415m1.926 4.674c-.126.114-.309.122-.45.046-.635-.528-.75-.774-1.097-1.278-1.048 1.073-1.792 1.394-3.148 1.394-1.61 0-2.858-.995-2.858-2.988 0-1.556.838-2.616 2.036-3.134 1.037-.459 2.485-.54 3.591-.666v-.248c0-.456.035-.996-.233-1.39-.231-.353-.677-.498-1.072-.498-.728 0-1.375.374-1.534 1.151-.032.173-.158.343-.333.35l-1.85-.199c-.157-.035-.331-.162-.286-.402C25.762.68 27.793 0 29.608 0c.93 0 2.144.248 2.877.955.93.87.841 2.033.841 3.298v2.989c0 .898.37 1.291.72 1.777.12.173.148.38-.008.51-.39.326-1.083.933-1.464 1.273l-.003-.006M5.626 6.122c0 .747.019 1.37-.357 2.034-.304.54-.784.871-1.321.871-.733 0-1.16-.561-1.16-1.389 0-1.634 1.458-1.931 2.838-1.931v.415m1.926 4.674c-.127.114-.31.122-.452.046-.633-.528-.746-.774-1.095-1.278-1.048 1.073-1.789 1.394-3.148 1.394C1.251 10.958 0 9.963 0 7.97c0-1.556.84-2.616 2.036-3.134 1.036-.459 2.484-.54 3.59-.666v-.248c0-.456.035-.996-.23-1.39-.235-.353-.68-.498-1.072-.498-.728 0-1.378.374-1.536 1.151-.033.173-.159.343-.33.35L.603 3.337C.448 3.301.277 3.174.32 2.934.747.68 2.774 0 4.59 0c.929 0 2.143.248 2.876.955.929.87.84 2.033.84 3.298v2.989c0 .898.37 1.291.72 1.777.123.173.15.38-.005.51-.39.326-1.083.933-1.464 1.273l-.005-.006"/>
    </g>
</svg>
