<svg xmlns="http://www.w3.org/2000/svg" width="122" height="27"><path d="M12.902 20.415c0 1.957-.528 3.445-1.584 4.462-1.056 1.018-2.565 1.527-4.525 1.527-1.599 0-2.893-.375-3.883-1.123-1.103-.845-1.674-2.045-1.712-3.6h.571c.057 1.383.57 2.438 1.541 3.167.875.653 2.027.98 3.454.98 3.712 0 5.567-1.805 5.567-5.413v-4.52h-.057c-.285 1.266-.985 2.284-2.098 3.051a6.325 6.325 0 01-3.669 1.152c-1.96 0-3.492-.72-4.596-2.16C.903 16.635.4 14.965.4 12.929c0-2.072.523-3.78 1.57-5.123 1.16-1.46 2.74-2.189 4.738-2.189a5.65 5.65 0 013.54 1.21c1.047.806 1.722 1.842 2.027 3.108h.057V5.961h.571v14.454zm-.6-7.486c0-1.824-.466-3.368-1.399-4.635-1.046-1.401-2.445-2.102-4.196-2.102-1.827 0-3.264.682-4.31 2.044C1.444 9.464.968 11.03.968 12.93c0 1.862.448 3.388 1.342 4.578 1.009 1.343 2.398 2.015 4.168 2.015 1.808 0 3.254-.652 4.34-1.957.989-1.229 1.484-2.774 1.484-4.636zm15.241.489c0 2.15-.561 3.954-1.684 5.414-1.219 1.612-2.865 2.418-4.939 2.418-2.055 0-3.701-.806-4.939-2.418-1.104-1.46-1.656-3.264-1.656-5.414 0-2.13.562-3.934 1.685-5.412 1.237-1.593 2.883-2.39 4.938-2.39 2.055 0 3.692.806 4.911 2.419 1.123 1.458 1.684 3.253 1.684 5.383zm-.572 0c0-1.957-.504-3.618-1.512-4.98-1.123-1.497-2.627-2.246-4.51-2.246-1.885 0-3.388.749-4.511 2.245-1.027 1.344-1.541 3.004-1.541 4.981 0 1.997.504 3.667 1.512 5.01 1.123 1.497 2.636 2.246 4.54 2.246 1.902 0 3.406-.749 4.51-2.246 1.008-1.363 1.512-3.033 1.512-5.01zm14.888 0c0 2.15-.561 3.954-1.684 5.414-1.219 1.612-2.865 2.418-4.939 2.418-2.055 0-3.701-.806-4.939-2.418-1.104-1.46-1.656-3.264-1.656-5.414 0-2.13.562-3.934 1.685-5.412 1.237-1.593 2.883-2.39 4.938-2.39 2.056 0 3.692.806 4.911 2.419 1.123 1.458 1.684 3.253 1.684 5.383zm-.571 0c0-1.957-.505-3.618-1.513-4.98-1.123-1.497-2.627-2.246-4.51-2.246-1.885 0-3.388.749-4.511 2.245-1.027 1.344-1.541 3.004-1.541 4.981 0 1.997.504 3.667 1.512 5.01 1.123 1.497 2.636 2.246 4.54 2.246 1.902 0 3.406-.749 4.51-2.246 1.008-1.363 1.513-3.033 1.513-5.01zm13.859 7.486h-.57V16.73h-.058c-.38 1.362-1.104 2.456-2.17 3.282-1.065.825-2.302 1.238-3.71 1.238-2.018 0-3.597-.816-4.739-2.447-1.009-1.44-1.513-3.225-1.513-5.356 0-2.092.513-3.877 1.54-5.355 1.143-1.65 2.713-2.332 4.711-2.332 1.466 0 2.722.399 3.769 1.195 1.047.797 1.75 1.906 2.112 3.326h.057V.397h.571v20.507zm-.57-7.457c0-2.073-.467-3.752-1.4-5.038-1.046-1.478-2.56-2.217-4.539-2.217-1.845 0-3.282.768-4.31 2.303-.914 1.344-1.37 2.995-1.37 4.952 0 1.977.447 3.628 1.341 4.952 1.028 1.517 2.474 2.275 4.34 2.275 1.864 0 3.349-.758 4.453-2.275.99-1.343 1.484-2.994 1.484-4.952zm3.523 7.457V5.974h1.927v3.003c.576-1.06.926-1.665 1.414-2.003.488-.337 1.107-.857 1.654-1.065.718-.272 1.744-.584 2.578-.157l.035 2.115c-.614-.366-2.047.074-2.739.385-.5.225-1.124.54-1.473.964-.409.498-.78.714-.966 1.305-.279.9-.39 1.498-.39 2.567v7.816H58.1zm9.176-8.587h9.466c-.128-1.439-.49-2.517-1.086-3.236-.915-1.116-2.101-1.674-3.56-1.674-1.319 0-2.428.445-3.327 1.336-.9.89-1.397 2.082-1.493 3.574zm9.19 3.818l2.358-.027c-.409 1.528-1.283 3.025-2.39 3.868-1.105.844-2.518 1.266-4.237 1.266-2.165 0-3.882-.673-5.15-2.018-1.269-1.345-1.903-3.23-1.903-5.658 0-2.512.641-4.461 1.924-5.848 1.282-1.387 2.945-2.08 4.99-2.08 1.98 0 3.596.679 4.85 2.038 1.255 1.359 1.882 3.27 1.882 5.735 0 .15-.004.375-.014.675H67.19c.093 1.64.631 3.246 1.458 4.118.827.871 2.327 1.307 3.563 1.307.92 0 2.057-.555 2.707-1.042.65-.487 1.167-1.265 1.548-2.334zm13.305 2.928c-.929.796-1.823 1.359-2.683 1.687a7.695 7.695 0 01-2.767.492c-1.626 0-2.876-.401-3.75-1.202-.873-.802-1.31-1.826-1.31-3.072 0-.731.165-1.399.495-2.003a4.12 4.12 0 011.297-1.455 6.072 6.072 0 011.805-.83c.492-.131 1.236-.258 2.23-.38 2.026-.243 3.517-.534 4.474-.871.01-.347.014-.567.014-.66 0-1.032-.237-2.186-.71-2.608-.642-.571-1.594-.857-2.858-.857-1.18 0-2.051.208-2.614.625-.562.418-1.251 1.194-1.247 2.643l-2.268-.007c.223-1.06.405-2.245.916-2.896.51-.652 1.25-1.153 2.216-1.505.967-.351 2.086-.527 3.36-.527 1.263 0 2.097.15 2.887.45.79.3 1.315.76 1.687 1.214.371.455.549.946.697 1.64.084.43.126 1.209.126 2.333v3.374c0 2.353-.085 3.07.022 3.694.107.623.733.89 1.546.747l.031 1.93s-1.952.116-2.624-.142c-.549-.21-.897-1.112-.972-1.814zm-.209-5.9c-.91.376-1.973.337-3.821.71-1.17.26-1.679.345-2.106.533-.428.187-1.26.28-1.846.987-.471.569-.404 1.147-.404 1.78 0 .674.557 1.237 1.064 1.687.506.45 1.496.4 2.472.4.966 0 1.826-.214 2.578-.64.753-.427 1.306-1.01 1.66-1.75.269-.572.403-1.416.403-2.53v-1.176zm15.986 7.851V19.13c-.938 1.481-3.589 2.222-5.41 2.222a5.77 5.77 0 01-3.255-.984c-.99-.656-1.756-1.573-2.3-2.749-.543-1.176-.815-2.528-.815-4.056 0-1.49.246-2.842.739-4.055.492-1.214 1.23-2.144 2.216-2.79.985-.648 2.086-.97 3.303-.97.893 0 2.958.189 3.654.568.697.38 1.264.874 1.701 1.484V.405h2.164v20.61h-1.997zm-9.905-7.45c0 1.911.4 3.34 1.2 4.287.798.947 2.6 1.809 3.688 1.809 1.097 0 3.142-.841 3.91-1.746.766-.904 1.15-2.284 1.15-4.14 0-2.043-.391-3.542-1.172-4.498-.78-.956-2.622-1.901-3.765-1.901-1.115 0-3.14.926-3.888 1.844-.749.919-1.123 2.367-1.123 4.344zm13.642 2.398l1.875-.025c.14 1.003.703 2.083 1.34 2.617.637.534 1.76.88 2.904.88 1.152 0 2.163-.198 2.72-.672.558-.473 1.267-.834 1.267-1.821 0-.572-.325-1.294-.817-1.622-.344-.225-1.433-.705-2.8-1.052-1.84-.469-2.958-.602-3.67-.944-.71-.342-1.484-.737-1.85-1.342a3.786 3.786 0 01-.551-2.003c0-.666.15-1.282.453-1.849a4.086 4.086 0 011.233-1.413c.39-.29.727-.536 1.401-.738a7.53 7.53 0 012.168-.302c1.161 0 2.181.169 3.06.506.877.338 1.526.794 1.944 1.37.418.577.726 1.737.884 2.702l-1.868-.012c-.111-.769-.844-1.913-1.379-2.344-.534-.432-1.875-.57-2.85-.57-1.153 0-1.702.504-2.195.888-.492.385-.738.834-.738 1.35 0 .328-.015.7.19.963.204.272.68.692 1.117.87.251.093 1.107.426 2.334.763 1.775.478 2.974.597 3.675.902.702.304 1.253.747 1.652 1.328.4.581.6 1.303.6 2.165 0 .843-.244 1.638-.732 2.383-.488.745-1.192 1.321-2.112 1.729-.92.408-1.96.611-3.122.611-1.924 0-3.39-.403-4.398-1.209-1.008-.805-1.457-2.526-1.735-4.11z" fill="#59461B"/></svg>